<svg width="830" height="242" viewBox="0 0 830 242" fill="none" xmlns="http://www.w3.org/2000/svg">
<rect x="187" y="38.3104" width="643" height="72" fill="black"/>
<path d="M218.443 105.366C215.563 105.366 213.419 104.662 212.011 103.254C210.667 101.782 209.995 99.9264 209.995 97.6864V95.7664C209.995 93.5264 210.667 91.7024 212.011 90.2944C213.419 88.8224 215.563 88.0864 218.443 88.0864C221.323 88.0864 223.435 88.8224 224.779 90.2944C226.187 91.7024 226.891 93.5264 226.891 95.7664V97.6864C226.891 99.9264 226.187 101.782 224.779 103.254C223.435 104.662 221.323 105.366 218.443 105.366ZM281.281 104.31C275.457 104.246 271.201 102.838 268.513 100.086C265.825 97.2704 264.481 93.4304 264.481 88.5664V88.0864H263.905C263.393 90.3264 262.785 92.2144 262.081 93.7504C261.441 95.2864 260.609 96.5344 259.585 97.4944C258.561 98.3904 257.345 99.0624 255.937 99.5104C254.529 99.8944 252.865 100.086 250.945 100.086C246.337 100.086 242.881 98.8704 240.577 96.4384C238.273 93.9424 237.121 90.4544 237.121 85.9744C237.121 80.7264 238.561 76.4704 241.441 73.2064C244.385 69.8784 248.321 66.9984 253.249 64.5664L264.001 59.1904V53.9104H275.521V84.7264C275.521 86.6464 275.937 87.9904 276.769 88.7584C277.665 89.5264 279.169 89.9104 281.281 89.9104H284.161V101.43L281.281 104.31ZM254.113 85.6864C257.825 85.6864 260.385 85.3344 261.793 84.6304C263.265 83.9264 264.001 82.6464 264.001 80.7904V69.2704L256.897 72.6304C255.169 73.4624 253.665 74.1984 252.385 74.8384C251.169 75.4784 250.113 76.1504 249.217 76.8544C248.385 77.4944 247.745 78.1664 247.297 78.8704C246.913 79.5744 246.721 80.3744 246.721 81.2704C246.721 82.8704 247.233 84.0224 248.257 84.7264C249.345 85.3664 251.297 85.6864 254.113 85.6864ZM268.897 46.2304C267.233 46.2304 265.857 45.7184 264.769 44.6944C263.745 43.6704 263.233 42.0384 263.233 39.7984C263.233 37.5584 263.745 35.9264 264.769 34.9024C265.857 33.8784 267.233 33.3664 268.897 33.3664H270.817C272.481 33.3664 273.825 33.8784 274.849 34.9024C275.937 35.9264 276.481 37.5584 276.481 39.7984C276.481 42.0384 275.937 43.6704 274.849 44.6944C273.825 45.7184 272.481 46.2304 270.817 46.2304H268.897ZM253.729 46.2304C252.065 46.2304 250.689 45.7184 249.601 44.6944C248.577 43.6704 248.065 42.0384 248.065 39.7984C248.065 37.5584 248.577 35.9264 249.601 34.9024C250.689 33.8784 252.065 33.3664 253.729 33.3664H255.649C257.313 33.3664 258.657 33.8784 259.681 34.9024C260.769 35.9264 261.313 37.5584 261.313 39.7984C261.313 42.0384 260.769 43.6704 259.681 44.6944C258.657 45.7184 257.313 46.2304 255.649 46.2304H253.729ZM281.307 92.7904L284.188 89.9104H287.068C292.188 89.9104 294.748 87.6704 294.748 83.1904V69.4624H305.308V83.1904C305.308 87.6704 307.548 89.9104 312.028 89.9104H315.868V101.43L312.988 104.31C307.868 104.31 303.964 103.286 301.276 101.238C298.652 99.1264 296.892 95.8304 295.996 91.3504H295.42C294.524 95.8304 292.988 99.1264 290.812 101.238C288.636 103.286 285.467 104.31 281.307 104.31V92.7904ZM299.068 61.7824C297.404 61.7824 296.028 61.2704 294.94 60.2464C293.916 59.2224 293.404 57.5904 293.404 55.3504C293.404 53.1104 293.916 51.4784 294.94 50.4544C296.028 49.4304 297.404 48.9184 299.068 48.9184H300.988C302.652 48.9184 303.996 49.4304 305.02 50.4544C306.108 51.4784 306.652 53.1104 306.652 55.3504C306.652 57.5904 306.108 59.2224 305.02 60.2464C303.996 61.2704 302.652 61.7824 300.988 61.7824H299.068ZM327.107 98.9344C325.635 100.918 323.779 102.326 321.539 103.158C319.363 103.926 316.515 104.31 312.995 104.31V92.7904L315.875 89.9104C318.243 89.9104 319.971 89.5584 321.059 88.8544C322.147 88.1504 323.043 86.9024 323.747 85.1104L326.435 78.4864C327.267 76.4384 328.195 74.5184 329.219 72.7264C330.243 70.9344 331.459 69.3664 332.867 68.0224C334.275 66.6784 335.843 65.6224 337.571 64.8544C339.363 64.0864 341.411 63.7024 343.715 63.7024C349.731 63.7024 354.243 66.0704 357.251 70.8064C360.323 75.5424 361.859 82.1024 361.859 90.4864V93.2704L352.739 106.806L327.107 98.9344ZM332.387 85.5904L351.683 91.4464V90.4864C351.683 86.6464 350.755 83.6384 348.899 81.4624C347.043 79.2864 344.515 78.1984 341.315 78.1984C339.267 78.1984 337.475 78.7424 335.939 79.8304C334.467 80.9184 333.347 82.6464 332.579 85.0144L332.387 85.5904ZM362.403 34.2304C362.403 31.3504 363.171 29.2384 364.707 27.8944C366.18 26.5504 368.452 26.1664 371.523 26.7424L377.38 27.8944C378.788 28.2144 379.844 28.4064 380.548 28.4704C381.316 28.5344 381.924 28.5664 382.372 28.5664C383.844 28.5664 384.932 28.2784 385.636 27.7024C386.34 27.1264 386.948 26.0384 387.46 24.4384L393.028 27.2224C391.748 33.6864 388.196 36.9184 382.372 36.9184C381.476 36.9184 380.548 36.8864 379.588 36.8224C378.628 36.6944 377.38 36.4704 375.844 36.1504L369.124 34.9024V37.6864H362.403V34.2304ZM371.908 44.9824H383.428V104.31H371.908V44.9824ZM427.693 105.366C424.813 105.366 422.669 104.662 421.261 103.254C419.917 101.782 419.245 99.9264 419.245 97.6864V95.7664C419.245 93.5264 419.917 91.7024 421.261 90.2944C422.669 88.8224 424.813 88.0864 427.693 88.0864C430.573 88.0864 432.685 88.8224 434.029 90.2944C435.437 91.7024 436.141 93.5264 436.141 95.7664V97.6864C436.141 99.9264 435.437 101.782 434.029 103.254C432.685 104.662 430.573 105.366 427.693 105.366ZM483.907 105.462C476.931 105.462 471.043 105.078 466.243 104.31C461.507 103.542 457.667 102.294 454.723 100.566C451.779 98.7744 449.635 96.4704 448.291 93.6544C447.011 90.8384 446.371 87.3504 446.371 83.1904C446.371 80.6304 446.691 77.8144 447.331 74.7424C448.035 71.6704 448.995 68.6304 450.211 65.6224L459.427 68.3104C458.339 70.4864 457.475 72.5984 456.835 74.6464C456.259 76.6304 455.971 78.4224 455.971 80.0224C455.971 81.8784 456.355 83.4464 457.123 84.7264C457.891 85.9424 459.139 86.9344 460.867 87.7024C462.595 88.4704 464.867 89.0464 467.683 89.4304C470.499 89.7504 473.987 89.9104 478.147 89.9104H491.587C495.875 89.9104 499.395 89.8144 502.147 89.6224C504.963 89.4304 507.171 89.0784 508.771 88.5664C510.435 88.0544 511.587 87.3824 512.227 86.5504C512.867 85.6544 513.187 84.5344 513.187 83.1904V33.2704H524.707V83.1904C524.707 87.6704 527.267 89.9104 532.387 89.9104H535.267V101.43L532.387 104.31C527.203 104.31 523.139 103.286 520.195 101.238C517.315 99.1264 515.395 95.8304 514.435 91.3504H513.859C513.347 93.9744 512.451 96.1824 511.171 97.9744C509.891 99.7664 508.067 101.238 505.699 102.39C503.331 103.478 500.355 104.246 496.771 104.694C493.251 105.206 488.963 105.462 483.907 105.462ZM475.555 74.4544L490.627 67.3504L490.435 66.6784H482.755C480.451 66.6784 478.659 66.1984 477.379 65.2384C476.163 64.2784 475.555 62.5184 475.555 59.9584C475.555 57.7184 476.291 55.8944 477.763 54.4864C479.235 53.0784 481.347 51.5744 484.099 49.9744L490.435 46.3264L493.891 52.0864L482.083 58.7104L482.275 59.4784H489.763C492.131 59.4784 493.955 59.9264 495.235 60.8224C496.515 61.6544 497.155 63.1904 497.155 65.4304C497.155 67.7344 496.483 69.6224 495.139 71.0944C493.859 72.5664 491.875 73.9744 489.187 75.3184L478.723 80.5984L475.555 74.4544ZM532.37 92.7904L535.25 89.9104H538.034C540.338 89.9104 542.226 89.8144 543.698 89.6224C545.234 89.4304 546.45 89.1104 547.346 88.6624C548.306 88.1504 548.946 87.5424 549.266 86.8384C549.65 86.0704 549.842 85.1424 549.842 84.0544C549.842 83.0944 549.746 81.8784 549.554 80.4064C549.426 78.8704 549.138 76.8864 548.69 74.4544L547.058 65.5264L557.522 63.7984L558.962 72.7264C559.282 74.4544 559.538 76.3744 559.73 78.4864C559.922 80.5984 560.018 82.4544 560.018 84.0544C560.018 91.0304 558.29 96.1504 554.834 99.4144C551.442 102.678 545.842 104.31 538.034 104.31H532.37V92.7904ZM557.426 56.1184C555.762 56.1184 554.386 55.6064 553.298 54.5824C552.274 53.5584 551.762 51.9264 551.762 49.6864C551.762 47.4464 552.274 45.8144 553.298 44.7904C554.386 43.7664 555.762 43.2544 557.426 43.2544H559.346C561.01 43.2544 562.354 43.7664 563.378 44.7904C564.466 45.8144 565.01 47.4464 565.01 49.6864C565.01 51.9264 564.466 53.5584 563.378 54.5824C562.354 55.6064 561.01 56.1184 559.346 56.1184H557.426ZM542.258 56.1184C540.594 56.1184 539.218 55.6064 538.13 54.5824C537.106 53.5584 536.594 51.9264 536.594 49.6864C536.594 47.4464 537.106 45.8144 538.13 44.7904C539.218 43.7664 540.594 43.2544 542.258 43.2544H544.178C545.842 43.2544 547.186 43.7664 548.21 44.7904C549.298 45.8144 549.842 47.4464 549.842 49.6864C549.842 51.9264 549.298 53.5584 548.21 54.5824C547.186 55.6064 545.842 56.1184 544.178 56.1184H542.258ZM587.77 104.31C581.306 104.31 576.506 102.774 573.37 99.7024C570.234 96.6304 568.666 91.6384 568.666 84.7264V33.2704H580.186V82.8064C580.186 85.6864 580.762 87.6064 581.914 88.5664C583.066 89.4624 585.05 89.9104 587.866 89.9104H590.746V101.43L587.866 104.31H587.77ZM587.87 92.7904L590.75 89.9104H593.534C595.838 89.9104 597.726 89.8144 599.198 89.6224C600.734 89.4304 601.95 89.1104 602.846 88.6624C603.806 88.1504 604.446 87.5424 604.766 86.8384C605.15 86.0704 605.342 85.1424 605.342 84.0544C605.342 83.0944 605.246 81.8784 605.054 80.4064C604.926 78.8704 604.638 76.8864 604.19 74.4544L602.558 65.5264L613.022 63.7984L614.462 72.7264C614.782 74.4544 615.038 76.3744 615.23 78.4864C615.422 80.5984 615.518 82.4544 615.518 84.0544C615.518 91.0304 613.79 96.1504 610.334 99.4144C606.942 102.678 601.342 104.31 593.534 104.31H587.87V92.7904ZM612.926 56.1184C611.262 56.1184 609.886 55.6064 608.798 54.5824C607.774 53.5584 607.262 51.9264 607.262 49.6864C607.262 47.4464 607.774 45.8144 608.798 44.7904C609.886 43.7664 611.262 43.2544 612.926 43.2544H614.846C616.51 43.2544 617.854 43.7664 618.878 44.7904C619.966 45.8144 620.51 47.4464 620.51 49.6864C620.51 51.9264 619.966 53.5584 618.878 54.5824C617.854 55.6064 616.51 56.1184 614.846 56.1184H612.926ZM597.758 56.1184C596.094 56.1184 594.718 55.6064 593.63 54.5824C592.606 53.5584 592.094 51.9264 592.094 49.6864C592.094 47.4464 592.606 45.8144 593.63 44.7904C594.718 43.7664 596.094 43.2544 597.758 43.2544H599.678C601.342 43.2544 602.686 43.7664 603.71 44.7904C604.798 45.8144 605.342 47.4464 605.342 49.6864C605.342 51.9264 604.798 53.5584 603.71 54.5824C602.686 55.6064 601.342 56.1184 599.678 56.1184H597.758ZM605.342 42.1024C603.678 42.1024 602.302 41.5904 601.214 40.5664C600.19 39.5424 599.678 37.9104 599.678 35.6704C599.678 33.4304 600.19 31.7984 601.214 30.7744C602.302 29.7504 603.678 29.2384 605.342 29.2384H607.262C608.926 29.2384 610.27 29.7504 611.294 30.7744C612.382 31.7984 612.926 33.4304 612.926 35.6704C612.926 37.9104 612.382 39.5424 611.294 40.5664C610.27 41.5904 608.926 42.1024 607.262 42.1024H605.342ZM635.11 104.31C630.63 104.31 627.206 103.19 624.838 100.95C622.47 98.7104 621.286 95.1264 621.286 90.1984V83.7664H632.326V89.9104H647.014C651.302 89.9104 653.446 88.2464 653.446 84.9184C653.446 84.1504 653.254 83.3504 652.87 82.5184C652.486 81.6224 651.878 80.6304 651.046 79.5424C650.214 78.4544 649.126 77.2384 647.782 75.8944C646.502 74.5504 644.902 72.9824 642.982 71.1904L633.478 62.3584L643.27 51.7984L651.046 59.4784C653.414 61.8464 655.43 64.0544 657.094 66.1024C658.758 68.1504 660.102 70.1664 661.126 72.1504C662.15 74.1344 662.886 76.1824 663.334 78.2944C663.782 80.3424 664.006 82.5504 664.006 84.9184C664.006 91.0624 662.438 95.8304 659.302 99.2224C656.166 102.614 651.75 104.31 646.054 104.31H635.11ZM692.208 104.31C685.744 104.31 680.944 102.774 677.808 99.7024C674.672 96.6304 673.104 91.6384 673.104 84.7264V33.2704H684.624V82.8064C684.624 85.6864 685.2 87.6064 686.352 88.5664C687.504 89.4624 689.488 89.9104 692.304 89.9104H695.184V101.43L692.304 104.31H692.208ZM692.307 92.7904L695.188 89.9104H701.812C705.396 89.9104 708.596 89.8784 711.412 89.8144C714.292 89.6864 717.012 89.4304 719.572 89.0464C722.132 88.6624 724.628 88.0864 727.06 87.3184C729.492 86.5504 732.084 85.4944 734.836 84.1504L738.388 82.4224V81.9424L723.028 78.6784L708.532 75.1264V82.3264H697.492V74.9344C697.492 70.3904 698.452 67.0624 700.372 64.9504C702.356 62.8384 705.364 61.7824 709.396 61.7824C709.908 61.7824 710.42 61.8144 710.932 61.8784C711.508 61.9424 712.148 62.0384 712.852 62.1664C713.62 62.2944 714.516 62.4864 715.54 62.7424C716.564 62.9984 717.844 63.3184 719.38 63.7024L737.908 68.5024C740.468 69.2064 743.22 69.7504 746.164 70.1344C749.108 70.5184 752.02 70.7104 754.9 70.7104H756.82V85.1104H750.1C750.164 86.9024 750.676 88.1504 751.635 88.8544C752.66 89.5584 754.388 89.9104 756.82 89.9104H759.7V101.43L756.82 104.31C752.02 104.246 748.276 103.158 745.588 101.046C742.964 98.8704 741.332 95.5104 740.692 90.9664L740.308 91.2544C736.084 94.1344 732.276 96.4384 728.884 98.1664C725.556 99.8304 722.388 101.142 719.38 102.102C716.372 102.998 713.46 103.606 710.644 103.926C707.828 104.182 704.884 104.31 701.812 104.31H692.307V92.7904ZM770.92 98.9344C769.448 100.918 767.592 102.326 765.352 103.158C763.176 103.926 760.327 104.31 756.807 104.31V92.7904L759.688 89.9104C762.056 89.9104 763.784 89.5584 764.872 88.8544C765.96 88.1504 766.856 86.9024 767.56 85.1104L770.248 78.4864C771.08 76.4384 772.008 74.5184 773.032 72.7264C774.056 70.9344 775.272 69.3664 776.68 68.0224C778.088 66.6784 779.656 65.6224 781.384 64.8544C783.176 64.0864 785.224 63.7024 787.528 63.7024C793.544 63.7024 798.056 66.0704 801.064 70.8064C804.136 75.5424 805.672 82.1024 805.672 90.4864V93.2704L796.552 106.806L770.92 98.9344ZM776.2 85.5904L795.496 91.4464V90.4864C795.496 86.6464 794.568 83.6384 792.712 81.4624C790.856 79.2864 788.328 78.1984 785.128 78.1984C783.08 78.1984 781.288 78.7424 779.752 79.8304C778.28 80.9184 777.16 82.6464 776.392 85.0144L776.2 85.5904Z" fill="white"/>
<rect y="135.31" width="830" height="72" fill="black"/>
<path d="M36.38 202.366C33.5 202.366 31.356 201.662 29.948 200.254C28.604 198.782 27.932 196.926 27.932 194.686V192.766C27.932 190.526 28.604 188.702 29.948 187.294C31.356 185.822 33.5 185.086 36.38 185.086C39.26 185.086 41.372 185.822 42.716 187.294C44.124 188.702 44.828 190.526 44.828 192.766V194.686C44.828 196.926 44.124 198.782 42.716 200.254C41.372 201.662 39.26 202.366 36.38 202.366ZM99.2188 201.31C93.3948 201.246 89.1388 199.838 86.4508 197.086C83.7628 194.27 82.4188 190.43 82.4188 185.566V185.086H81.8428C81.3308 187.326 80.7228 189.214 80.0188 190.75C79.3788 192.286 78.5468 193.534 77.5228 194.494C76.4988 195.39 75.2828 196.062 73.8748 196.51C72.4668 196.894 70.8028 197.086 68.8828 197.086C64.2748 197.086 60.8188 195.87 58.5148 193.438C56.2108 190.942 55.0588 187.454 55.0588 182.974C55.0588 177.726 56.4988 173.47 59.3788 170.206C62.3228 166.878 66.2588 163.998 71.1868 161.566L81.9388 156.19V150.91H93.4588V181.726C93.4588 183.646 93.8748 184.99 94.7068 185.758C95.6028 186.526 97.1068 186.91 99.2188 186.91H102.099V198.43L99.2188 201.31ZM72.0508 182.686C75.7628 182.686 78.3228 182.334 79.7308 181.63C81.2028 180.926 81.9388 179.646 81.9388 177.79V166.27L74.8348 169.63C73.1068 170.462 71.6028 171.198 70.3228 171.838C69.1068 172.478 68.0508 173.15 67.1548 173.854C66.3228 174.494 65.6828 175.166 65.2348 175.87C64.8508 176.574 64.6588 177.374 64.6588 178.27C64.6588 179.87 65.1708 181.022 66.1948 181.726C67.2828 182.366 69.2348 182.686 72.0508 182.686ZM86.8348 143.23C85.1708 143.23 83.7948 142.718 82.7068 141.694C81.6828 140.67 81.1708 139.038 81.1708 136.798C81.1708 134.558 81.6828 132.926 82.7068 131.902C83.7948 130.878 85.1708 130.366 86.8348 130.366H88.7548C90.4188 130.366 91.7628 130.878 92.7868 131.902C93.8748 132.926 94.4188 134.558 94.4188 136.798C94.4188 139.038 93.8748 140.67 92.7868 141.694C91.7628 142.718 90.4188 143.23 88.7548 143.23H86.8348ZM71.6668 143.23C70.0028 143.23 68.6268 142.718 67.5388 141.694C66.5148 140.67 66.0028 139.038 66.0028 136.798C66.0028 134.558 66.5148 132.926 67.5388 131.902C68.6268 130.878 70.0028 130.366 71.6668 130.366H73.5868C75.2508 130.366 76.5948 130.878 77.6188 131.902C78.7068 132.926 79.2508 134.558 79.2508 136.798C79.2508 139.038 78.7068 140.67 77.6188 141.694C76.5948 142.718 75.2508 143.23 73.5868 143.23H71.6668ZM119.213 166.078L119.981 166.462C123.245 163.07 126.733 160.638 130.445 159.166C134.157 157.63 138.253 156.862 142.733 156.862C150.285 156.862 155.949 158.942 159.725 163.102C163.501 167.198 165.389 172.926 165.389 180.286C165.389 187.518 163.341 192.83 159.245 196.222C155.149 199.614 148.685 201.31 139.853 201.31H99.245V189.79L102.125 186.91H106.445L108.845 182.782V130.27H120.365V154.846L119.213 166.078ZM139.853 186.91C142.925 186.91 145.453 186.814 147.437 186.622C149.485 186.366 151.117 185.982 152.333 185.47C153.613 184.894 154.509 184.126 155.021 183.166C155.533 182.206 155.789 180.958 155.789 179.422C155.789 176.67 154.893 174.622 153.101 173.278C151.309 171.934 148.333 171.262 144.173 171.262H141.293C138.413 171.262 135.885 171.39 133.709 171.646C131.533 171.838 129.613 172.254 127.949 172.894C126.285 173.534 124.781 174.43 123.437 175.582C122.093 176.734 120.813 178.238 119.597 180.094L115.469 186.334L115.757 186.91H139.853ZM193.645 201.31C187.181 201.31 182.381 199.774 179.245 196.702C176.109 193.63 174.541 188.638 174.541 181.726V130.27H186.061V179.806C186.061 182.686 186.637 184.606 187.789 185.566C188.941 186.462 190.925 186.91 193.741 186.91H196.621V198.43L193.741 201.31H193.645ZM193.745 189.79L196.625 186.91H196.721C199.729 186.91 202.001 186.558 203.537 185.854C205.073 185.086 206.289 183.774 207.185 181.918L210.929 174.142L220.433 178.75L217.073 185.854C218.609 186.558 220.177 187.134 221.777 187.582C223.377 188.03 225.009 188.254 226.673 188.254C229.425 188.254 231.409 187.678 232.625 186.526C233.841 185.31 234.449 183.198 234.449 180.19V174.142H245.009V180.19C245.009 182.878 245.393 184.83 246.161 186.046C246.929 187.262 248.337 187.87 250.385 187.87H251.345C253.009 187.87 254.321 187.262 255.281 186.046C256.305 184.83 256.817 182.878 256.817 180.19V170.302H267.377V180.19C267.377 184.67 269.617 186.91 274.097 186.91H277.937V198.43L275.057 201.31C270.193 201.31 266.481 200.35 263.921 198.43C261.425 196.446 259.825 193.342 259.121 189.118H258.545C258.161 193.726 257.009 197.118 255.089 199.294C253.169 201.406 250.609 202.462 247.409 202.462C244.017 202.462 241.393 201.406 239.537 199.294C237.681 197.118 236.401 193.726 235.697 189.118H235.121C234.609 193.726 233.457 197.118 231.665 199.294C229.937 201.406 227.633 202.462 224.753 202.462C222.897 202.462 221.041 202.11 219.185 201.406C217.393 200.766 215.025 199.582 212.081 197.854L210.161 196.702C208.177 198.558 205.905 199.806 203.345 200.446C200.849 201.022 197.649 201.31 193.745 201.31V189.79ZM275.026 189.79L277.906 186.91H280.786C285.906 186.91 288.466 184.67 288.466 180.19V166.462H299.026V180.19C299.026 184.67 301.266 186.91 305.746 186.91H309.586V198.43L306.706 201.31C301.586 201.31 297.682 200.286 294.994 198.238C292.37 196.126 290.61 192.83 289.714 188.35H289.138C288.242 192.83 286.706 196.126 284.53 198.238C282.354 200.286 279.186 201.31 275.026 201.31V189.79ZM292.786 221.95C291.122 221.95 289.746 221.438 288.658 220.414C287.634 219.39 287.122 217.758 287.122 215.518C287.122 213.278 287.634 211.646 288.658 210.622C289.746 209.598 291.122 209.086 292.786 209.086H294.706C296.37 209.086 297.714 209.598 298.738 210.622C299.826 211.646 300.37 213.278 300.37 215.518C300.37 217.758 299.826 219.39 298.738 220.414C297.714 221.438 296.37 221.95 294.706 221.95H292.786ZM306.714 189.79L309.594 186.91H312.378C314.682 186.91 316.57 186.814 318.042 186.622C319.578 186.43 320.794 186.11 321.69 185.662C322.65 185.15 323.29 184.542 323.61 183.838C323.994 183.07 324.186 182.142 324.186 181.054C324.186 180.094 324.09 178.878 323.898 177.406C323.77 175.87 323.482 173.886 323.034 171.454L321.402 162.526L331.866 160.798L333.306 169.726C333.626 171.454 333.882 173.374 334.074 175.486C334.266 177.598 334.362 179.454 334.362 181.054C334.362 188.03 332.634 193.15 329.178 196.414C325.786 199.678 320.186 201.31 312.378 201.31H306.714V189.79ZM323.514 221.95C321.85 221.95 320.474 221.438 319.386 220.414C318.362 219.39 317.85 217.758 317.85 215.518C317.85 213.278 318.362 211.646 319.386 210.622C320.474 209.598 321.85 209.086 323.514 209.086H325.434C327.098 209.086 328.442 209.598 329.466 210.622C330.554 211.646 331.098 213.278 331.098 215.518C331.098 217.758 330.554 219.39 329.466 220.414C328.442 221.438 327.098 221.95 325.434 221.95H323.514ZM374.818 202.366C371.938 202.366 369.794 201.662 368.386 200.254C367.042 198.782 366.37 196.926 366.37 194.686V192.766C366.37 190.526 367.042 188.702 368.386 187.294C369.794 185.822 371.938 185.086 374.818 185.086C377.698 185.086 379.81 185.822 381.154 187.294C382.562 188.702 383.266 190.526 383.266 192.766V194.686C383.266 196.926 382.562 198.782 381.154 200.254C379.81 201.662 377.698 202.366 374.818 202.366ZM437.656 201.31C431.832 201.246 427.576 199.838 424.888 197.086C422.2 194.27 420.856 190.43 420.856 185.566V185.086H420.28C419.768 187.326 419.16 189.214 418.456 190.75C417.816 192.286 416.984 193.534 415.96 194.494C414.936 195.39 413.72 196.062 412.312 196.51C410.904 196.894 409.24 197.086 407.32 197.086C402.712 197.086 399.256 195.87 396.952 193.438C394.648 190.942 393.496 187.454 393.496 182.974C393.496 177.726 394.936 173.47 397.816 170.206C400.76 166.878 404.696 163.998 409.624 161.566L420.376 156.19V150.91H431.896V181.726C431.896 183.646 432.312 184.99 433.144 185.758C434.04 186.526 435.544 186.91 437.656 186.91H440.536V198.43L437.656 201.31ZM410.488 182.686C414.2 182.686 416.76 182.334 418.168 181.63C419.64 180.926 420.376 179.646 420.376 177.79V166.27L413.272 169.63C411.544 170.462 410.04 171.198 408.76 171.838C407.544 172.478 406.488 173.15 405.592 173.854C404.76 174.494 404.12 175.166 403.672 175.87C403.288 176.574 403.096 177.374 403.096 178.27C403.096 179.87 403.608 181.022 404.632 181.726C405.72 182.366 407.672 182.686 410.488 182.686ZM425.272 143.23C423.608 143.23 422.232 142.718 421.144 141.694C420.12 140.67 419.608 139.038 419.608 136.798C419.608 134.558 420.12 132.926 421.144 131.902C422.232 130.878 423.608 130.366 425.272 130.366H427.192C428.856 130.366 430.2 130.878 431.224 131.902C432.312 132.926 432.856 134.558 432.856 136.798C432.856 139.038 432.312 140.67 431.224 141.694C430.2 142.718 428.856 143.23 427.192 143.23H425.272ZM410.104 143.23C408.44 143.23 407.064 142.718 405.976 141.694C404.952 140.67 404.44 139.038 404.44 136.798C404.44 134.558 404.952 132.926 405.976 131.902C407.064 130.878 408.44 130.366 410.104 130.366H412.024C413.688 130.366 415.032 130.878 416.056 131.902C417.144 132.926 417.688 134.558 417.688 136.798C417.688 139.038 417.144 140.67 416.056 141.694C415.032 142.718 413.688 143.23 412.024 143.23H410.104ZM437.682 189.79L440.562 186.91H443.443C448.563 186.91 451.123 184.67 451.123 180.19V166.462H461.683V180.19C461.683 184.67 463.923 186.91 468.403 186.91H472.243V198.43L469.363 201.31C464.243 201.31 460.339 200.286 457.651 198.238C455.027 196.126 453.267 192.83 452.371 188.35H451.795C450.899 192.83 449.363 196.126 447.187 198.238C445.011 200.286 441.842 201.31 437.682 201.31V189.79ZM463.027 221.95C461.363 221.95 459.987 221.438 458.899 220.414C457.875 219.39 457.363 217.758 457.363 215.518C457.363 213.278 457.875 211.646 458.899 210.622C459.987 209.598 461.363 209.086 463.027 209.086H464.947C466.611 209.086 467.955 209.598 468.979 210.622C470.067 211.646 470.611 213.278 470.611 215.518C470.611 217.758 470.067 219.39 468.979 220.414C467.955 221.438 466.611 221.95 464.947 221.95H463.027ZM447.859 221.95C446.195 221.95 444.819 221.438 443.73 220.414C442.707 219.39 442.195 217.758 442.195 215.518C442.195 213.278 442.707 211.646 443.73 210.622C444.819 209.598 446.195 209.086 447.859 209.086H449.779C451.443 209.086 452.787 209.598 453.811 210.622C454.899 211.646 455.443 213.278 455.443 215.518C455.443 217.758 454.899 219.39 453.811 220.414C452.787 221.438 451.443 221.95 449.779 221.95H447.859ZM493.37 180.19C493.37 182.942 494.138 184.83 495.674 185.854L499.898 178.558C502.138 174.654 504.41 171.326 506.714 168.574C509.082 165.822 511.546 163.582 514.106 161.854C516.666 160.126 519.354 158.878 522.17 158.11C525.05 157.278 528.122 156.862 531.386 156.862C538.938 156.862 544.602 158.942 548.378 163.102C552.154 167.198 554.042 172.926 554.042 180.286C554.042 187.518 551.994 192.83 547.898 196.222C543.802 199.614 537.338 201.31 528.506 201.31H501.05C495.93 201.31 492.026 200.286 489.338 198.238C486.714 196.126 484.954 192.83 484.058 188.35H483.482C482.586 192.83 481.05 196.126 478.874 198.238C476.698 200.286 473.53 201.31 469.37 201.31V189.79L472.25 186.91H475.13C480.25 186.91 482.81 184.67 482.81 180.19V174.142H493.37V180.19ZM528.506 186.91C531.578 186.91 534.106 186.814 536.09 186.622C538.138 186.366 539.77 185.982 540.986 185.47C542.266 184.894 543.162 184.126 543.674 183.166C544.186 182.206 544.442 180.958 544.442 179.422C544.442 176.67 543.546 174.622 541.754 173.278C539.962 171.934 536.986 171.262 532.826 171.262H529.946C527.066 171.262 524.538 171.39 522.362 171.646C520.186 171.838 518.266 172.254 516.602 172.894C514.938 173.534 513.434 174.43 512.09 175.582C510.746 176.734 509.466 178.238 508.25 180.094L504.122 186.334L504.41 186.91H528.506ZM560.255 209.95H566.399C572.479 209.95 577.343 209.182 580.991 207.646C584.703 206.11 587.327 203.998 588.863 201.31H577.727C572.543 201.31 568.479 199.806 565.535 196.798C562.655 193.726 561.215 189.47 561.215 184.03C561.215 180.702 561.695 177.63 562.655 174.814C563.679 171.934 565.055 169.47 566.783 167.422C568.575 165.31 570.655 163.678 573.023 162.526C575.455 161.31 578.079 160.702 580.895 160.702C586.719 160.702 591.327 163.006 594.719 167.614C598.111 172.222 599.967 178.654 600.287 186.91H605.183V198.43L602.303 201.31H599.039C597.247 208.67 593.695 214.334 588.383 218.302C583.135 222.334 576.127 224.35 567.359 224.35H560.255V209.95ZM570.815 182.11C570.815 183.838 571.519 185.086 572.927 185.854C574.335 186.558 576.255 186.91 578.687 186.91H590.687V186.622C590.687 183.166 589.631 180.382 587.519 178.27C585.471 176.158 582.847 175.102 579.647 175.102C577.151 175.102 575.039 175.774 573.311 177.118C571.647 178.398 570.815 180.062 570.815 182.11ZM691.012 201.31C688.772 201.31 686.628 201.054 684.58 200.542C682.596 199.966 680.708 198.942 678.916 197.47C674.82 200.03 668.996 201.31 661.444 201.31H633.988C628.868 201.31 624.964 200.286 622.276 198.238C619.652 196.126 617.892 192.83 616.996 188.35H616.42C615.524 192.83 613.988 196.126 611.812 198.238C609.636 200.286 606.467 201.31 602.307 201.31V189.79L605.188 186.91H608.068C613.188 186.91 615.748 184.67 615.748 180.19V174.142H626.308V180.19C626.308 182.942 627.076 184.83 628.612 185.854L632.836 178.558C635.076 174.654 637.348 171.326 639.652 168.574C642.02 165.822 644.484 163.582 647.044 161.854C649.604 160.126 652.292 158.878 655.108 158.11C657.988 157.278 661.06 156.862 664.324 156.862C671.876 156.862 677.54 158.942 681.316 163.102C685.092 167.198 686.98 172.926 686.98 180.286C686.98 182.718 686.756 184.83 686.308 186.622C687.908 186.814 689.476 186.91 691.012 186.91H693.892V198.43L691.012 201.31ZM661.444 186.91C664.516 186.91 667.044 186.814 669.028 186.622C671.076 186.366 672.708 185.982 673.924 185.47C675.204 184.894 676.1 184.126 676.612 183.166C677.124 182.206 677.38 180.958 677.38 179.422C677.38 176.67 676.484 174.622 674.692 173.278C672.9 171.934 669.924 171.262 665.764 171.262H662.884C660.004 171.262 657.476 171.39 655.3 171.646C653.124 171.838 651.204 172.254 649.54 172.894C647.876 173.534 646.372 174.43 645.028 175.582C643.684 176.734 642.404 178.238 641.188 180.094L637.06 186.334L637.348 186.91H661.444ZM690.995 189.79L693.875 186.91H700.499C704.083 186.91 707.283 186.878 710.099 186.814C712.979 186.686 715.699 186.43 718.259 186.046C720.819 185.662 723.315 185.086 725.747 184.318C728.179 183.55 730.771 182.494 733.523 181.15L737.075 179.422V178.942L721.715 175.678L707.219 172.126V179.326H696.179V171.934C696.179 167.39 697.139 164.062 699.059 161.95C701.043 159.838 704.051 158.782 708.083 158.782C708.595 158.782 709.107 158.814 709.619 158.878C710.195 158.942 710.835 159.038 711.539 159.166C712.307 159.294 713.203 159.486 714.227 159.742C715.251 159.998 716.531 160.318 718.067 160.702L736.595 165.502C739.155 166.206 741.907 166.75 744.851 167.134C747.795 167.518 750.707 167.71 753.587 167.71H755.507V182.11H748.787C748.851 183.902 749.363 185.15 750.323 185.854C751.347 186.558 753.075 186.91 755.507 186.91H758.387V198.43L755.507 201.31C750.707 201.246 746.963 200.158 744.275 198.046C741.651 195.87 740.019 192.51 739.379 187.966L738.995 188.254C734.771 191.134 730.963 193.438 727.571 195.166C724.243 196.83 721.075 198.142 718.067 199.102C715.059 199.998 712.147 200.606 709.331 200.926C706.515 201.182 703.571 201.31 700.499 201.31H690.995V189.79ZM719.219 151.102C717.555 151.102 716.179 150.59 715.091 149.566C714.067 148.542 713.555 146.91 713.555 144.67C713.555 142.43 714.067 140.798 715.091 139.774C716.179 138.75 717.555 138.238 719.219 138.238H721.139C722.803 138.238 724.147 138.75 725.171 139.774C726.259 140.798 726.803 142.43 726.803 144.67C726.803 146.91 726.259 148.542 725.171 149.566C724.147 150.59 722.803 151.102 721.139 151.102H719.219ZM755.495 189.79L758.375 186.91H762.599C765.031 186.91 766.631 186.462 767.399 185.566C768.231 184.606 768.647 183.134 768.647 181.15V130.27H780.167V181.15C780.167 187.998 778.823 193.054 776.135 196.318C773.511 199.582 768.999 201.246 762.599 201.31H755.495V189.79ZM791.698 130.27H803.218V201.31H791.698V130.27Z" fill="white"/>
</svg>
