<svg width="52" height="50" viewBox="0 0 52 50" fill="none" xmlns="http://www.w3.org/2000/svg">
<path d="M1.09561 2.32842C0.829504 1.54732 1.5639 0.795815 2.34438 1.05056L50.8798 16.8922C51.9184 17.2311 42.5517 18.1088 41.4629 18.1906L23.1625 20.9083C22.6898 20.9438 22.3076 21.3098 22.2488 21.7831L18.8737 38.6415C18.7428 39.6954 17.3146 49.9354 16.9723 48.9307L1.09561 2.32842Z" fill="#DC0E11"/>
<path d="M18.8737 38.6415L17.8931 38.4452L17.8859 38.4815L17.8813 38.5183L18.8737 38.6415ZM16.9723 48.9307L17.9189 48.6083L16.9723 48.9307ZM23.1625 20.9083L23.2374 21.9055L23.2735 21.9028L23.3094 21.8974L23.1625 20.9083ZM22.2488 21.7831L23.2293 21.9794L23.2366 21.9431L23.2411 21.9063L22.2488 21.7831ZM50.8798 16.8922L51.1901 15.9415L50.8798 16.8922ZM41.4629 18.1906L41.388 17.1934L41.3519 17.1961L41.316 17.2015L41.4629 18.1906ZM2.34438 1.05056L2.03409 2.0012H2.03409L2.34438 1.05056ZM1.09561 2.32842L0.149038 2.6509L1.09561 2.32842ZM7.37113 5.60533C6.96813 5.22769 6.3353 5.24825 5.95766 5.65124C5.58002 6.05424 5.60058 6.68707 6.00357 7.06471L7.37113 5.60533ZM2.03409 2.0012L50.5695 17.8428L51.1901 15.9415L2.65466 0.0999137L2.03409 2.0012ZM41.316 17.2015L23.0156 19.9191L23.3094 21.8974L41.6098 19.1798L41.316 17.2015ZM21.2682 21.5868L17.8931 38.4452L19.8542 38.8378L23.2293 21.9794L21.2682 21.5868ZM17.9189 48.6083L2.04219 2.00594L0.149038 2.6509L16.0257 49.2532L17.9189 48.6083ZM17.8813 38.5183C17.8175 39.0314 17.4296 41.8425 17.0151 44.398C16.8074 45.6789 16.5964 46.874 16.4188 47.6798C16.3264 48.0991 16.2558 48.3524 16.2145 48.4589C16.2057 48.4816 16.2086 48.4699 16.2257 48.4398C16.227 48.4374 16.3033 48.2908 16.4834 48.1674C16.5888 48.0952 16.7718 48.0027 17.0167 48.0001C17.275 47.9973 17.4851 48.0956 17.627 48.2076C17.8539 48.3866 17.918 48.6055 17.9189 48.6083L16.0257 49.2532C16.048 49.3187 16.1356 49.5785 16.388 49.7776C16.5426 49.8996 16.766 50.0028 17.038 49.9999C17.2966 49.9972 17.4938 49.8995 17.6139 49.8173C17.8232 49.6738 17.9306 49.4876 17.9648 49.4275C18.0147 49.3396 18.0521 49.2519 18.0793 49.1817C18.1822 48.9163 18.2803 48.5262 18.3719 48.1103C18.5625 47.2458 18.7809 46.0034 18.9893 44.7182C19.4073 42.1413 19.7989 39.3055 19.866 38.7648L17.8813 38.5183ZM23.0876 19.9111C22.1356 19.9826 21.3734 20.7182 21.2564 21.6598L23.2411 21.9063C23.2413 21.9052 23.2414 21.9047 23.2415 21.9045C23.2415 21.9044 23.2416 21.9044 23.2416 21.9044C23.2416 21.9043 23.2417 21.904 23.242 21.9038C23.2422 21.9036 23.2419 21.904 23.2407 21.9045C23.2401 21.9048 23.2394 21.905 23.2386 21.9052C23.2378 21.9054 23.2373 21.9055 23.2374 21.9055L23.0876 19.9111ZM50.5695 17.8428C50.5691 17.8427 50.4227 17.8008 50.2728 17.6638C50.1869 17.5853 50.0562 17.4356 49.9936 17.2034C49.9258 16.9518 49.968 16.7148 50.0526 16.5353C50.1863 16.2518 50.4101 16.1362 50.4162 16.1327C50.4657 16.1044 50.4959 16.0951 50.4824 16.0999C50.4134 16.1245 50.2067 16.1751 49.8271 16.2416C49.1088 16.3674 48.0261 16.5087 46.854 16.6445C44.5165 16.9153 41.9163 17.1538 41.388 17.1934L41.5378 19.1878C42.0983 19.1457 44.7259 18.9044 47.0842 18.6312C48.2601 18.495 49.3924 18.3482 50.1722 18.2116C50.5417 18.1468 50.9049 18.0725 51.1537 17.9839C51.2196 17.9604 51.3134 17.9236 51.4097 17.8685C51.4625 17.8382 51.7162 17.6966 51.8617 17.3881C51.9522 17.196 51.9958 16.9468 51.9248 16.6831C51.859 16.4388 51.7203 16.2772 51.6217 16.1872C51.4464 16.027 51.2554 15.9628 51.1901 15.9415L50.5695 17.8428ZM2.65466 0.0999137C1.07626 -0.415265 -0.377966 1.10401 0.149038 2.6509L2.04219 2.00594C2.03969 1.99861 2.03995 1.9963 2.04003 1.9981C2.04009 1.99965 2.03989 2.00175 2.03944 2.00358C2.03905 2.00515 2.03877 2.00536 2.03932 2.00438C2.03992 2.00331 2.04106 2.00167 2.04273 1.99997C2.04439 1.99826 2.0457 1.9974 2.04603 1.9972C2.04626 1.99707 2.04494 1.99789 2.04187 1.99871C2.03853 1.9996 2.0347 2.00007 2.03127 1.99999C2.0276 1.9999 2.02819 1.99927 2.03409 2.0012L2.65466 0.0999137ZM6.00357 7.06471L21.8569 21.9206L23.2245 20.4612L7.37113 5.60533L6.00357 7.06471Z" fill="#F8F8FF"/>
</svg>
