<svg width="1179" height="107" viewBox="0 0 1179 107" fill="none" xmlns="http://www.w3.org/2000/svg">
<path d="M1021.4 35C1021.4 21.331 1032.48 10.25 1046.15 10.25H1154C1167.67 10.25 1178.75 21.331 1178.75 35C1178.75 48.669 1167.67 59.75 1154 59.75H1026.15C1023.52 59.75 1021.4 57.6234 1021.4 55V35Z" fill="#F8F8FF"/>
<path d="M1021.4 35C1021.4 21.331 1032.48 10.25 1046.15 10.25H1154C1167.67 10.25 1178.75 21.331 1178.75 35C1178.75 48.669 1167.67 59.75 1154 59.75H1026.15C1023.52 59.75 1021.4 57.6234 1021.4 55V35Z" stroke="black" stroke-width="0.5"/>
<path d="M1038.86 44V42.964H1041.59V35.096H1041.49L1039.03 37.392L1038.34 36.65L1040.93 34.228H1042.77V42.964H1045.29V44H1038.86ZM1053.49 44H1047.07V42.796L1050.27 39.856C1050.72 39.436 1051.11 38.9927 1051.41 38.526C1051.72 38.05 1051.88 37.574 1051.88 37.098V36.93C1051.88 36.3887 1051.73 35.95 1051.43 35.614C1051.13 35.278 1050.68 35.11 1050.07 35.11C1049.77 35.11 1049.51 35.152 1049.29 35.236C1049.06 35.32 1048.87 35.4367 1048.7 35.586C1048.54 35.7353 1048.4 35.9127 1048.29 36.118C1048.19 36.314 1048.11 36.5287 1048.04 36.762L1046.99 36.356C1047.08 36.0667 1047.21 35.7867 1047.37 35.516C1047.54 35.236 1047.74 34.9887 1047.98 34.774C1048.24 34.5593 1048.54 34.3867 1048.88 34.256C1049.24 34.1253 1049.65 34.06 1050.13 34.06C1050.6 34.06 1051.03 34.13 1051.4 34.27C1051.77 34.41 1052.09 34.606 1052.34 34.858C1052.59 35.11 1052.78 35.4087 1052.91 35.754C1053.05 36.0993 1053.12 36.482 1053.12 36.902C1053.12 37.2847 1053.07 37.6393 1052.95 37.966C1052.85 38.2927 1052.71 38.6053 1052.52 38.904C1052.33 39.1933 1052.11 39.478 1051.83 39.758C1051.57 40.038 1051.29 40.318 1050.98 40.598L1048.35 42.964H1053.49V44ZM1056.46 44.168C1056.16 44.168 1055.95 44.0933 1055.81 43.944C1055.67 43.7947 1055.61 43.5987 1055.61 43.356V43.174C1055.61 42.9313 1055.67 42.7353 1055.81 42.586C1055.95 42.4367 1056.16 42.362 1056.46 42.362C1056.76 42.362 1056.98 42.4367 1057.11 42.586C1057.25 42.7353 1057.32 42.9313 1057.32 43.174V43.356C1057.32 43.5987 1057.25 43.7947 1057.11 43.944C1056.98 44.0933 1056.76 44.168 1056.46 44.168ZM1056.46 38.414C1056.16 38.414 1055.95 38.3393 1055.81 38.19C1055.67 38.0407 1055.61 37.8447 1055.61 37.602V37.42C1055.61 37.1773 1055.67 36.9813 1055.81 36.832C1055.95 36.6827 1056.16 36.608 1056.46 36.608C1056.76 36.608 1056.98 36.6827 1057.11 36.832C1057.25 36.9813 1057.32 37.1773 1057.32 37.42V37.602C1057.32 37.8447 1057.25 38.0407 1057.11 38.19C1056.98 38.3393 1056.76 38.414 1056.46 38.414ZM1062.71 44.168C1061.54 44.168 1060.69 43.7247 1060.15 42.838C1059.61 41.9513 1059.35 40.71 1059.35 39.114C1059.35 37.518 1059.61 36.2767 1060.15 35.39C1060.69 34.5033 1061.54 34.06 1062.71 34.06C1063.87 34.06 1064.72 34.5033 1065.26 35.39C1065.8 36.2767 1066.07 37.518 1066.07 39.114C1066.07 40.71 1065.8 41.9513 1065.26 42.838C1064.72 43.7247 1063.87 44.168 1062.71 44.168ZM1062.71 43.146C1063.09 43.146 1063.42 43.0667 1063.69 42.908C1063.96 42.7493 1064.18 42.5253 1064.35 42.236C1064.51 41.9467 1064.63 41.606 1064.71 41.214C1064.79 40.822 1064.84 40.388 1064.84 39.912V38.316C1064.84 37.84 1064.79 37.406 1064.71 37.014C1064.63 36.622 1064.51 36.2813 1064.35 35.992C1064.18 35.7027 1063.96 35.4787 1063.69 35.32C1063.42 35.1613 1063.09 35.082 1062.71 35.082C1062.32 35.082 1062 35.1613 1061.73 35.32C1061.46 35.4787 1061.24 35.7027 1061.07 35.992C1060.9 36.2813 1060.78 36.622 1060.69 37.014C1060.62 37.406 1060.58 37.84 1060.58 38.316V39.912C1060.58 40.388 1060.62 40.822 1060.69 41.214C1060.78 41.606 1060.9 41.9467 1061.07 42.236C1061.24 42.5253 1061.46 42.7493 1061.73 42.908C1062 43.0667 1062.32 43.146 1062.71 43.146ZM1071.1 44.168C1069.93 44.168 1069.08 43.7247 1068.54 42.838C1068.01 41.9513 1067.74 40.71 1067.74 39.114C1067.74 37.518 1068.01 36.2767 1068.54 35.39C1069.08 34.5033 1069.93 34.06 1071.1 34.06C1072.27 34.06 1073.12 34.5033 1073.65 35.39C1074.19 36.2767 1074.46 37.518 1074.46 39.114C1074.46 40.71 1074.19 41.9513 1073.65 42.838C1073.12 43.7247 1072.27 44.168 1071.1 44.168ZM1071.1 43.146C1071.48 43.146 1071.81 43.0667 1072.08 42.908C1072.35 42.7493 1072.57 42.5253 1072.74 42.236C1072.91 41.9467 1073.03 41.606 1073.1 41.214C1073.19 40.822 1073.23 40.388 1073.23 39.912V38.316C1073.23 37.84 1073.19 37.406 1073.1 37.014C1073.03 36.622 1072.91 36.2813 1072.74 35.992C1072.57 35.7027 1072.35 35.4787 1072.08 35.32C1071.81 35.1613 1071.48 35.082 1071.1 35.082C1070.72 35.082 1070.39 35.1613 1070.12 35.32C1069.85 35.4787 1069.63 35.7027 1069.46 35.992C1069.3 36.2813 1069.17 36.622 1069.09 37.014C1069.01 37.406 1068.97 37.84 1068.97 38.316V39.912C1068.97 40.388 1069.01 40.822 1069.09 41.214C1069.17 41.606 1069.3 41.9467 1069.46 42.236C1069.63 42.5253 1069.85 42.7493 1070.12 42.908C1070.39 43.0667 1070.72 43.146 1071.1 43.146ZM1076.6 44V34.228H1080.49C1081.37 34.228 1082.04 34.48 1082.51 34.984C1082.98 35.4787 1083.22 36.16 1083.22 37.028C1083.22 37.896 1082.98 38.582 1082.51 39.086C1082.04 39.5807 1081.37 39.828 1080.49 39.828H1077.77V44H1076.6ZM1077.77 38.792H1080.49C1080.96 38.792 1081.32 38.6707 1081.57 38.428C1081.83 38.1853 1081.96 37.84 1081.96 37.392V36.664C1081.96 36.216 1081.83 35.8707 1081.57 35.628C1081.32 35.3853 1080.96 35.264 1080.49 35.264H1077.77V38.792ZM1092.7 35.768H1092.63L1091.81 37.406L1089.47 41.662L1087.13 37.406L1086.31 35.768H1086.24V44H1085.09V34.228H1086.66L1089.46 39.492H1089.53L1092.34 34.228H1093.85V44H1092.7V35.768Z" fill="#A2A2A2"/>
<path d="M1115.95 35.68H1108.89V42H1107.21V28.04H1108.89V34.2H1115.95V28.04H1117.63V42H1115.95V35.68ZM1125.08 42.24C1124.37 42.24 1123.73 42.1133 1123.16 41.86C1122.6 41.6067 1122.11 41.2467 1121.7 40.78C1121.3 40.3 1120.98 39.7333 1120.76 39.08C1120.54 38.4133 1120.44 37.6667 1120.44 36.84C1120.44 36.0267 1120.54 35.2867 1120.76 34.62C1120.98 33.9533 1121.3 33.3867 1121.7 32.92C1122.11 32.44 1122.6 32.0733 1123.16 31.82C1123.73 31.5667 1124.37 31.44 1125.08 31.44C1125.77 31.44 1126.39 31.5667 1126.94 31.82C1127.48 32.0733 1127.95 32.4267 1128.34 32.88C1128.72 33.32 1129.02 33.8467 1129.22 34.46C1129.43 35.0733 1129.54 35.7467 1129.54 36.48V37.24H1122.12V37.72C1122.12 38.16 1122.18 38.5733 1122.32 38.96C1122.46 39.3333 1122.66 39.66 1122.92 39.94C1123.18 40.22 1123.5 40.44 1123.88 40.6C1124.26 40.76 1124.7 40.84 1125.18 40.84C1125.83 40.84 1126.4 40.6867 1126.88 40.38C1127.37 40.0733 1127.75 39.6333 1128.02 39.06L1129.16 39.88C1128.82 40.5867 1128.3 41.16 1127.6 41.6C1126.89 42.0267 1126.05 42.24 1125.08 42.24ZM1125.08 32.78C1124.64 32.78 1124.24 32.86 1123.88 33.02C1123.52 33.1667 1123.2 33.38 1122.94 33.66C1122.68 33.94 1122.48 34.2733 1122.34 34.66C1122.19 35.0333 1122.12 35.4467 1122.12 35.9V36.04H1127.82V35.82C1127.82 34.9 1127.56 34.1667 1127.06 33.62C1126.56 33.06 1125.9 32.78 1125.08 32.78ZM1133.87 42C1133.31 42 1132.89 41.8467 1132.59 41.54C1132.31 41.22 1132.17 40.82 1132.17 40.34V27.2H1133.77V40.6H1135.29V42H1133.87ZM1139.22 42C1138.66 42 1138.24 41.8467 1137.94 41.54C1137.66 41.22 1137.52 40.82 1137.52 40.34V27.2H1139.12V40.6H1140.64V42H1139.22ZM1146.87 42.24C1146.18 42.24 1145.55 42.1133 1144.97 41.86C1144.4 41.6067 1143.91 41.2467 1143.49 40.78C1143.09 40.3 1142.78 39.7333 1142.55 39.08C1142.33 38.4133 1142.21 37.6667 1142.21 36.84C1142.21 36.0267 1142.33 35.2867 1142.55 34.62C1142.78 33.9533 1143.09 33.3867 1143.49 32.92C1143.91 32.44 1144.4 32.0733 1144.97 31.82C1145.55 31.5667 1146.18 31.44 1146.87 31.44C1147.57 31.44 1148.19 31.5667 1148.75 31.82C1149.33 32.0733 1149.82 32.44 1150.23 32.92C1150.65 33.3867 1150.97 33.9533 1151.19 34.62C1151.42 35.2867 1151.53 36.0267 1151.53 36.84C1151.53 37.6667 1151.42 38.4133 1151.19 39.08C1150.97 39.7333 1150.65 40.3 1150.23 40.78C1149.82 41.2467 1149.33 41.6067 1148.75 41.86C1148.19 42.1133 1147.57 42.24 1146.87 42.24ZM1146.87 40.82C1147.74 40.82 1148.45 40.5533 1148.99 40.02C1149.54 39.4867 1149.81 38.6733 1149.81 37.58V36.1C1149.81 35.0067 1149.54 34.1933 1148.99 33.66C1148.45 33.1267 1147.74 32.86 1146.87 32.86C1146.01 32.86 1145.3 33.1267 1144.75 33.66C1144.21 34.1933 1143.93 35.0067 1143.93 36.1V37.58C1143.93 38.6733 1144.21 39.4867 1144.75 40.02C1145.3 40.5533 1146.01 40.82 1146.87 40.82ZM1154.9 38.3L1154.42 32.1V28.04H1156.18V32.1L1155.7 38.3H1154.9ZM1155.3 42.24C1154.88 42.24 1154.56 42.1333 1154.36 41.92C1154.18 41.7067 1154.08 41.4267 1154.08 41.08V40.82C1154.08 40.4733 1154.18 40.1933 1154.36 39.98C1154.56 39.7667 1154.88 39.66 1155.3 39.66C1155.73 39.66 1156.04 39.7667 1156.22 39.98C1156.42 40.1933 1156.52 40.4733 1156.52 40.82V41.08C1156.52 41.4267 1156.42 41.7067 1156.22 41.92C1156.04 42.1333 1155.73 42.24 1155.3 42.24Z" fill="#121010"/>
<circle cx="992" cy="38" r="25" fill="url(#paint0_radial_239_550)"/>
<rect x="497.25" y="44.25" width="214.016" height="61.5" rx="24.75" fill="#F8F8FF"/>
<rect x="497.25" y="44.25" width="214.016" height="61.5" rx="24.75" stroke="black" stroke-width="0.5"/>
<path d="M513.408 81.616C513.408 80.7293 513.6 80.0807 513.982 79.67C514.365 79.25 514.967 79.04 515.788 79.04H518.728V79.026C518.728 78.2233 518.574 77.598 518.266 77.15C517.968 76.702 517.543 76.478 516.992 76.478C516.33 76.478 515.77 76.828 515.312 77.528L514.514 76.772C514.785 76.352 515.13 75.9973 515.55 75.708C515.98 75.4187 516.46 75.274 516.992 75.274C517.851 75.274 518.518 75.6053 518.994 76.268C519.47 76.9213 519.708 77.8407 519.708 79.026V80.244H515.788C515.303 80.244 514.948 80.356 514.724 80.58C514.5 80.804 514.388 81.1587 514.388 81.644V85.256H513.408V81.616ZM521.566 81V79.964H524.296V72.096H524.198L521.734 74.392L521.048 73.65L523.638 71.228H525.472V79.964H527.992V81H521.566ZM536.191 81H529.779V79.796L532.971 76.856C533.428 76.436 533.811 75.9927 534.119 75.526C534.427 75.05 534.581 74.574 534.581 74.098V73.93C534.581 73.3887 534.431 72.95 534.133 72.614C533.834 72.278 533.381 72.11 532.775 72.11C532.476 72.11 532.215 72.152 531.991 72.236C531.767 72.32 531.571 72.4367 531.403 72.586C531.244 72.7353 531.109 72.9127 530.997 73.118C530.894 73.314 530.81 73.5287 530.745 73.762L529.695 73.356C529.788 73.0667 529.914 72.7867 530.073 72.516C530.241 72.236 530.446 71.9887 530.689 71.774C530.941 71.5593 531.239 71.3867 531.585 71.256C531.939 71.1253 532.355 71.06 532.831 71.06C533.307 71.06 533.731 71.13 534.105 71.27C534.478 71.41 534.791 71.606 535.043 71.858C535.295 72.11 535.486 72.4087 535.617 72.754C535.757 73.0993 535.827 73.482 535.827 73.902C535.827 74.2847 535.771 74.6393 535.659 74.966C535.556 75.2927 535.411 75.6053 535.225 75.904C535.038 76.1933 534.809 76.478 534.539 76.758C534.277 77.038 533.993 77.318 533.685 77.598L531.053 79.964H536.191V81ZM539.167 81.168C538.868 81.168 538.649 81.0933 538.509 80.944C538.378 80.7947 538.313 80.5987 538.313 80.356V80.174C538.313 79.9313 538.378 79.7353 538.509 79.586C538.649 79.4367 538.868 79.362 539.167 79.362C539.466 79.362 539.68 79.4367 539.811 79.586C539.951 79.7353 540.021 79.9313 540.021 80.174V80.356C540.021 80.5987 539.951 80.7947 539.811 80.944C539.68 81.0933 539.466 81.168 539.167 81.168ZM539.167 75.414C538.868 75.414 538.649 75.3393 538.509 75.19C538.378 75.0407 538.313 74.8447 538.313 74.602V74.42C538.313 74.1773 538.378 73.9813 538.509 73.832C538.649 73.6827 538.868 73.608 539.167 73.608C539.466 73.608 539.68 73.6827 539.811 73.832C539.951 73.9813 540.021 74.1773 540.021 74.42V74.602C540.021 74.8447 539.951 75.0407 539.811 75.19C539.68 75.3393 539.466 75.414 539.167 75.414ZM545.411 81.168C544.244 81.168 543.39 80.7247 542.849 79.838C542.317 78.9513 542.051 77.71 542.051 76.114C542.051 74.518 542.317 73.2767 542.849 72.39C543.39 71.5033 544.244 71.06 545.411 71.06C546.578 71.06 547.427 71.5033 547.959 72.39C548.5 73.2767 548.771 74.518 548.771 76.114C548.771 77.71 548.5 78.9513 547.959 79.838C547.427 80.7247 546.578 81.168 545.411 81.168ZM545.411 80.146C545.794 80.146 546.12 80.0667 546.391 79.908C546.662 79.7493 546.881 79.5253 547.049 79.236C547.217 78.9467 547.338 78.606 547.413 78.214C547.497 77.822 547.539 77.388 547.539 76.912V75.316C547.539 74.84 547.497 74.406 547.413 74.014C547.338 73.622 547.217 73.2813 547.049 72.992C546.881 72.7027 546.662 72.4787 546.391 72.32C546.12 72.1613 545.794 72.082 545.411 72.082C545.028 72.082 544.702 72.1613 544.431 72.32C544.16 72.4787 543.941 72.7027 543.773 72.992C543.605 73.2813 543.479 73.622 543.395 74.014C543.32 74.406 543.283 74.84 543.283 75.316V76.912C543.283 77.388 543.32 77.822 543.395 78.214C543.479 78.606 543.605 78.9467 543.773 79.236C543.941 79.5253 544.16 79.7493 544.431 79.908C544.702 80.0667 545.028 80.146 545.411 80.146ZM553.805 81.168C552.639 81.168 551.785 80.7247 551.243 79.838C550.711 78.9513 550.445 77.71 550.445 76.114C550.445 74.518 550.711 73.2767 551.243 72.39C551.785 71.5033 552.639 71.06 553.805 71.06C554.972 71.06 555.821 71.5033 556.353 72.39C556.895 73.2767 557.165 74.518 557.165 76.114C557.165 77.71 556.895 78.9513 556.353 79.838C555.821 80.7247 554.972 81.168 553.805 81.168ZM553.805 80.146C554.188 80.146 554.515 80.0667 554.785 79.908C555.056 79.7493 555.275 79.5253 555.443 79.236C555.611 78.9467 555.733 78.606 555.807 78.214C555.891 77.822 555.933 77.388 555.933 76.912V75.316C555.933 74.84 555.891 74.406 555.807 74.014C555.733 73.622 555.611 73.2813 555.443 72.992C555.275 72.7027 555.056 72.4787 554.785 72.32C554.515 72.1613 554.188 72.082 553.805 72.082C553.423 72.082 553.096 72.1613 552.825 72.32C552.555 72.4787 552.335 72.7027 552.167 72.992C551.999 73.2813 551.873 73.622 551.789 74.014C551.715 74.406 551.677 74.84 551.677 75.316V76.912C551.677 77.388 551.715 77.822 551.789 78.214C551.873 78.606 551.999 78.9467 552.167 79.236C552.335 79.5253 552.555 79.7493 552.825 79.908C553.096 80.0667 553.423 80.146 553.805 80.146Z" fill="#C8C8C8"/>
<path d="M658 69V76.5" stroke="black" stroke-width="5" stroke-linecap="round"/>
<path d="M648 54.5V89.5" stroke="black" stroke-width="5" stroke-linecap="round"/>
<path d="M638 57V86.5" stroke="black" stroke-width="5" stroke-linecap="round"/>
<path d="M628 61V85" stroke="black" stroke-width="5" stroke-linecap="round"/>
<path d="M618 54.5V89.5" stroke="url(#paint1_linear_239_550)" stroke-width="5" stroke-linecap="round"/>
<path d="M608 57.5L608 85.5" stroke="#A1A1A1" stroke-width="5" stroke-linecap="round"/>
<path d="M598 54.5V89.5" stroke="#A1A1A1" stroke-width="5" stroke-linecap="round"/>
<path d="M588 57V86.5" stroke="#A1A1A1" stroke-width="5" stroke-linecap="round"/>
<path d="M578 61V85" stroke="#A1A1A1" stroke-width="5" stroke-linecap="round"/>
<path d="M568 54.5V89.5" stroke="#A1A1A1" stroke-width="5" stroke-linecap="round"/>
<path d="M686.75 63H683C682.602 63 682.221 63.158 681.939 63.4393C681.658 63.7206 681.5 64.1022 681.5 64.5V79.5C681.5 79.8978 681.658 80.2794 681.939 80.5607C682.221 80.842 682.602 81 683 81H686.75C687.148 81 687.529 80.842 687.811 80.5607C688.092 80.2794 688.25 79.8978 688.25 79.5V64.5C688.25 64.1022 688.092 63.7206 687.811 63.4393C687.529 63.158 687.148 63 686.75 63ZM686.75 79.5H683V64.5H686.75V79.5ZM677 63H673.25C672.852 63 672.471 63.158 672.189 63.4393C671.908 63.7206 671.75 64.1022 671.75 64.5V79.5C671.75 79.8978 671.908 80.2794 672.189 80.5607C672.471 80.842 672.852 81 673.25 81H677C677.398 81 677.779 80.842 678.061 80.5607C678.342 80.2794 678.5 79.8978 678.5 79.5V64.5C678.5 64.1022 678.342 63.7206 678.061 63.4393C677.779 63.158 677.398 63 677 63ZM677 79.5H673.25V64.5H677V79.5Z" fill="black"/>
<path d="M674.092 94.62C673.258 94.62 672.648 94.3033 672.262 93.67C671.882 93.0367 671.692 92.15 671.692 91.01C671.692 89.87 671.882 88.9833 672.262 88.35C672.648 87.7167 673.258 87.4 674.092 87.4C674.925 87.4 675.532 87.7167 675.912 88.35C676.298 88.9833 676.492 89.87 676.492 91.01C676.492 92.15 676.298 93.0367 675.912 93.67C675.532 94.3033 674.925 94.62 674.092 94.62ZM674.092 93.89C674.365 93.89 674.598 93.8333 674.792 93.72C674.985 93.6067 675.142 93.4467 675.262 93.24C675.382 93.0333 675.468 92.79 675.522 92.51C675.582 92.23 675.612 91.92 675.612 91.58V90.44C675.612 90.1 675.582 89.79 675.522 89.51C675.468 89.23 675.382 88.9867 675.262 88.78C675.142 88.5733 674.985 88.4133 674.792 88.3C674.598 88.1867 674.365 88.13 674.092 88.13C673.818 88.13 673.585 88.1867 673.392 88.3C673.198 88.4133 673.042 88.5733 672.922 88.78C672.802 88.9867 672.712 89.23 672.652 89.51C672.598 89.79 672.572 90.1 672.572 90.44V91.58C672.572 91.92 672.598 92.23 672.652 92.51C672.712 92.79 672.802 93.0333 672.922 93.24C673.042 93.4467 673.198 93.6067 673.392 93.72C673.585 93.8333 673.818 93.89 674.092 93.89ZM678.548 94.62C678.335 94.62 678.178 94.5667 678.078 94.46C677.985 94.3533 677.938 94.2133 677.938 94.04V93.91C677.938 93.7367 677.985 93.5967 678.078 93.49C678.178 93.3833 678.335 93.33 678.548 93.33C678.761 93.33 678.915 93.3833 679.008 93.49C679.108 93.5967 679.158 93.7367 679.158 93.91V94.04C679.158 94.2133 679.108 94.3533 679.008 94.46C678.915 94.5667 678.761 94.62 678.548 94.62ZM678.548 90.51C678.335 90.51 678.178 90.4567 678.078 90.35C677.985 90.2433 677.938 90.1033 677.938 89.93V89.8C677.938 89.6267 677.985 89.4867 678.078 89.38C678.178 89.2733 678.335 89.22 678.548 89.22C678.761 89.22 678.915 89.2733 679.008 89.38C679.108 89.4867 679.158 89.6267 679.158 89.8V89.93C679.158 90.1033 679.108 90.2433 679.008 90.35C678.915 90.4567 678.761 90.51 678.548 90.51ZM680.888 94.5V93.76H682.838V88.14H682.768L681.008 89.78L680.518 89.25L682.368 87.52H683.678V93.76H685.478V94.5H680.888ZM690.984 88.26H687.924L687.724 90.92H687.794C687.961 90.6867 688.147 90.5 688.354 90.36C688.567 90.22 688.857 90.15 689.224 90.15C689.524 90.15 689.801 90.2 690.054 90.3C690.307 90.4 690.527 90.5433 690.714 90.73C690.901 90.91 691.044 91.1333 691.144 91.4C691.251 91.6667 691.304 91.97 691.304 92.31C691.304 92.65 691.251 92.9633 691.144 93.25C691.037 93.53 690.881 93.7733 690.674 93.98C690.474 94.18 690.227 94.3367 689.934 94.45C689.647 94.5633 689.321 94.62 688.954 94.62C688.661 94.62 688.401 94.5867 688.174 94.52C687.954 94.4533 687.757 94.3633 687.584 94.25C687.411 94.1367 687.257 94.01 687.124 93.87C686.997 93.73 686.881 93.5833 686.774 93.43L687.404 92.95C687.491 93.09 687.581 93.2167 687.674 93.33C687.774 93.4433 687.881 93.54 687.994 93.62C688.114 93.7 688.251 93.7633 688.404 93.81C688.557 93.85 688.741 93.87 688.954 93.87C689.434 93.87 689.797 93.7433 690.044 93.49C690.291 93.2367 690.414 92.88 690.414 92.42V92.32C690.414 91.86 690.291 91.5033 690.044 91.25C689.797 90.9967 689.434 90.87 688.954 90.87C688.634 90.87 688.381 90.93 688.194 91.05C688.014 91.1633 687.851 91.3 687.704 91.46L686.994 91.36L687.244 87.52H690.984V88.26Z" fill="#C8C8C8"/>
<circle cx="25" cy="25" r="25" transform="matrix(-1 0 0 1 767 57)" fill="url(#paint2_radial_239_550)"/>
<circle cx="272" cy="30" r="25" fill="url(#paint3_radial_239_550)"/>
<path d="M0.25 25C0.25 11.331 11.331 0.25 25 0.25H213C226.669 0.25 237.75 11.331 237.75 25V45C237.75 47.6234 235.623 49.75 233 49.75H25C11.331 49.75 0.25 38.669 0.25 25Z" fill="#DC0E11"/>
<path d="M0.25 25C0.25 11.331 11.331 0.25 25 0.25H213C226.669 0.25 237.75 11.331 237.75 25V45C237.75 47.6234 235.623 49.75 233 49.75H25C11.331 49.75 0.25 38.669 0.25 25Z" stroke="black" stroke-width="0.5"/>
<path d="M25.3506 29.3569L19.7506 34.8569C19.6571 34.9489 19.5312 35.0004 19.4 35.0004C19.2688 35.0004 19.1429 34.9489 19.0494 34.8569L16.6494 32.5C16.6026 32.4539 16.5653 32.3991 16.5396 32.3387C16.514 32.2782 16.5005 32.2133 16.5 32.1476C16.4994 32.082 16.5118 32.0168 16.5364 31.9559C16.561 31.8951 16.5974 31.8396 16.6435 31.7928C16.6895 31.746 16.7443 31.7087 16.8048 31.683C16.8652 31.6574 16.9301 31.6439 16.9958 31.6434C17.0615 31.6428 17.1266 31.6552 17.1875 31.6798C17.2484 31.7045 17.3038 31.7408 17.3506 31.7869L19.4 33.7994L24.65 28.6431C24.7447 28.5501 24.8724 28.4985 25.0051 28.4997C25.0708 28.5003 25.1357 28.5138 25.1962 28.5395C25.2566 28.5652 25.3115 28.6025 25.3575 28.6494C25.4036 28.6962 25.4399 28.7517 25.4645 28.8126C25.4891 28.8735 25.5015 28.9387 25.5009 29.0044C25.5003 29.0701 25.4868 29.1351 25.4611 29.1955C25.4355 29.256 25.3981 29.3108 25.3513 29.3569H25.3506ZM31.3569 28.6494C31.3109 28.6025 31.256 28.5651 31.1956 28.5394C31.1351 28.5137 31.0701 28.5002 31.0044 28.4996C30.9387 28.499 30.8735 28.5114 30.8126 28.536C30.7517 28.5606 30.6962 28.597 30.6494 28.6431L25.3994 33.7994L24.2225 32.6431C24.1279 32.5502 24.0002 32.4987 23.8676 32.4999C23.7349 32.5012 23.6082 32.555 23.5153 32.6497C23.4224 32.7443 23.3709 32.872 23.3721 33.0046C23.3734 33.1373 23.4272 33.264 23.5219 33.3569L25.0488 34.8569C25.1423 34.9489 25.2682 35.0004 25.3994 35.0004C25.5306 35.0004 25.6565 34.9489 25.75 34.8569L31.35 29.3569C31.397 29.3109 31.4344 29.2561 31.4601 29.1956C31.4859 29.1352 31.4995 29.0703 31.5001 29.0045C31.5007 28.9388 31.4884 28.8736 31.4638 28.8127C31.4393 28.7518 31.4029 28.6963 31.3569 28.6494Z" fill="black"/>
<path d="M43.4084 34.616C43.4084 33.7293 43.5997 33.0807 43.9824 32.67C44.365 32.25 44.967 32.04 45.7884 32.04H48.7284V32.026C48.7284 31.2233 48.5744 30.598 48.2664 30.15C47.9677 29.702 47.543 29.478 46.9924 29.478C46.3297 29.478 45.7697 29.828 45.3124 30.528L44.5144 29.772C44.785 29.352 45.1304 28.9973 45.5504 28.708C45.9797 28.4187 46.4604 28.274 46.9924 28.274C47.851 28.274 48.5184 28.6053 48.9944 29.268C49.4704 29.9213 49.7084 30.8407 49.7084 32.026V33.244H45.7884C45.303 33.244 44.9484 33.356 44.7244 33.58C44.5004 33.804 44.3884 34.1587 44.3884 34.644V38.256H43.4084V34.616ZM51.566 34V32.964H54.296V25.096H54.198L51.734 27.392L51.048 26.65L53.638 24.228H55.472V32.964H57.992V34H51.566ZM66.1905 34H59.7785V32.796L62.9705 29.856C63.4278 29.436 63.8105 28.9927 64.1185 28.526C64.4265 28.05 64.5805 27.574 64.5805 27.098V26.93C64.5805 26.3887 64.4312 25.95 64.1325 25.614C63.8338 25.278 63.3812 25.11 62.7745 25.11C62.4758 25.11 62.2145 25.152 61.9905 25.236C61.7665 25.32 61.5705 25.4367 61.4025 25.586C61.2438 25.7353 61.1085 25.9127 60.9965 26.118C60.8938 26.314 60.8098 26.5287 60.7445 26.762L59.6945 26.356C59.7878 26.0667 59.9138 25.7867 60.0725 25.516C60.2405 25.236 60.4458 24.9887 60.6885 24.774C60.9405 24.5593 61.2392 24.3867 61.5845 24.256C61.9392 24.1253 62.3545 24.06 62.8305 24.06C63.3065 24.06 63.7312 24.13 64.1045 24.27C64.4778 24.41 64.7905 24.606 65.0425 24.858C65.2945 25.11 65.4858 25.4087 65.6165 25.754C65.7565 26.0993 65.8265 26.482 65.8265 26.902C65.8265 27.2847 65.7705 27.6393 65.6585 27.966C65.5558 28.2927 65.4112 28.6053 65.2245 28.904C65.0378 29.1933 64.8092 29.478 64.5385 29.758C64.2772 30.038 63.9925 30.318 63.6845 30.598L61.0525 32.964H66.1905V34ZM69.167 34.168C68.8684 34.168 68.649 34.0933 68.509 33.944C68.3784 33.7947 68.313 33.5987 68.313 33.356V33.174C68.313 32.9313 68.3784 32.7353 68.509 32.586C68.649 32.4367 68.8684 32.362 69.167 32.362C69.4657 32.362 69.6804 32.4367 69.811 32.586C69.951 32.7353 70.021 32.9313 70.021 33.174V33.356C70.021 33.5987 69.951 33.7947 69.811 33.944C69.6804 34.0933 69.4657 34.168 69.167 34.168ZM69.167 28.414C68.8684 28.414 68.649 28.3393 68.509 28.19C68.3784 28.0407 68.313 27.8447 68.313 27.602V27.42C68.313 27.1773 68.3784 26.9813 68.509 26.832C68.649 26.6827 68.8684 26.608 69.167 26.608C69.4657 26.608 69.6804 26.6827 69.811 26.832C69.951 26.9813 70.021 27.1773 70.021 27.42V27.602C70.021 27.8447 69.951 28.0407 69.811 28.19C69.6804 28.3393 69.4657 28.414 69.167 28.414ZM75.4109 34.168C74.2443 34.168 73.3903 33.7247 72.8489 32.838C72.3169 31.9513 72.0509 30.71 72.0509 29.114C72.0509 27.518 72.3169 26.2767 72.8489 25.39C73.3903 24.5033 74.2443 24.06 75.4109 24.06C76.5776 24.06 77.4269 24.5033 77.9589 25.39C78.5003 26.2767 78.7709 27.518 78.7709 29.114C78.7709 30.71 78.5003 31.9513 77.9589 32.838C77.4269 33.7247 76.5776 34.168 75.4109 34.168ZM75.4109 33.146C75.7936 33.146 76.1203 33.0667 76.3909 32.908C76.6616 32.7493 76.8809 32.5253 77.0489 32.236C77.2169 31.9467 77.3383 31.606 77.4129 31.214C77.4969 30.822 77.5389 30.388 77.5389 29.912V28.316C77.5389 27.84 77.4969 27.406 77.4129 27.014C77.3383 26.622 77.2169 26.2813 77.0489 25.992C76.8809 25.7027 76.6616 25.4787 76.3909 25.32C76.1203 25.1613 75.7936 25.082 75.4109 25.082C75.0283 25.082 74.7016 25.1613 74.4309 25.32C74.1603 25.4787 73.9409 25.7027 73.7729 25.992C73.6049 26.2813 73.4789 26.622 73.3949 27.014C73.3203 27.406 73.2829 27.84 73.2829 28.316V29.912C73.2829 30.388 73.3203 30.822 73.3949 31.214C73.4789 31.606 73.6049 31.9467 73.7729 32.236C73.9409 32.5253 74.1603 32.7493 74.4309 32.908C74.7016 33.0667 75.0283 33.146 75.4109 33.146ZM83.8055 34.168C82.6388 34.168 81.7848 33.7247 81.2435 32.838C80.7115 31.9513 80.4455 30.71 80.4455 29.114C80.4455 27.518 80.7115 26.2767 81.2435 25.39C81.7848 24.5033 82.6388 24.06 83.8055 24.06C84.9721 24.06 85.8215 24.5033 86.3535 25.39C86.8948 26.2767 87.1655 27.518 87.1655 29.114C87.1655 30.71 86.8948 31.9513 86.3535 32.838C85.8215 33.7247 84.9721 34.168 83.8055 34.168ZM83.8055 33.146C84.1881 33.146 84.5148 33.0667 84.7855 32.908C85.0561 32.7493 85.2755 32.5253 85.4435 32.236C85.6115 31.9467 85.7328 31.606 85.8075 31.214C85.8915 30.822 85.9335 30.388 85.9335 29.912V28.316C85.9335 27.84 85.8915 27.406 85.8075 27.014C85.7328 26.622 85.6115 26.2813 85.4435 25.992C85.2755 25.7027 85.0561 25.4787 84.7855 25.32C84.5148 25.1613 84.1881 25.082 83.8055 25.082C83.4228 25.082 83.0961 25.1613 82.8255 25.32C82.5548 25.4787 82.3355 25.7027 82.1675 25.992C81.9995 26.2813 81.8735 26.622 81.7895 27.014C81.7148 27.406 81.6775 27.84 81.6775 28.316V29.912C81.6775 30.388 81.7148 30.822 81.7895 31.214C81.8735 31.606 81.9995 31.9467 82.1675 32.236C82.3355 32.5253 82.5548 32.7493 82.8255 32.908C83.0961 33.0667 83.4228 33.146 83.8055 33.146Z" fill="#C8C8C8"/>
<path d="M101.295 28.3L100.815 22.1V18.04H102.575V22.1L102.095 28.3H101.295ZM101.695 32.24C101.269 32.24 100.955 32.1333 100.755 31.92C100.569 31.7067 100.475 31.4267 100.475 31.08V30.82C100.475 30.4733 100.569 30.1933 100.755 29.98C100.955 29.7667 101.269 29.66 101.695 29.66C102.122 29.66 102.429 29.7667 102.615 29.98C102.815 30.1933 102.915 30.4733 102.915 30.82V31.08C102.915 31.4267 102.815 31.7067 102.615 31.92C102.429 32.1333 102.122 32.24 101.695 32.24ZM106.039 17.2H107.519V32H106.039V17.2ZM107.812 35.08H108.552C109.285 35.08 109.885 34.9733 110.352 34.76C110.818 34.5467 111.185 34.26 111.452 33.9C111.718 33.5533 111.905 33.14 112.012 32.66C112.118 32.1933 112.172 31.7 112.172 31.18C112.172 30.7933 112.152 30.3933 112.112 29.98C112.072 29.5533 112.018 29.1467 111.952 28.76L111.532 26.5L112.932 26.22L113.192 27.74C113.272 28.2067 113.332 28.6467 113.372 29.06C113.425 29.4733 113.465 29.88 113.492 30.28H115.392V31.6L114.992 32H113.472C113.418 32.6533 113.292 33.2667 113.092 33.84C112.905 34.4267 112.618 34.94 112.232 35.38C111.858 35.82 111.365 36.1667 110.752 36.42C110.152 36.6733 109.418 36.8 108.552 36.8H107.812V35.08ZM114.998 30.68L115.398 30.28H117.238C117.918 30.28 118.392 30.2133 118.658 30.08C118.938 29.9333 119.078 29.6867 119.078 29.34C119.078 29.2333 119.058 29.1267 119.018 29.02C118.992 28.9 118.938 28.7733 118.858 28.64C118.778 28.4933 118.672 28.3267 118.538 28.14C118.405 27.9533 118.232 27.7267 118.018 27.46L115.598 24.44V20.96L124.238 16.98V18.8L116.298 22.48V22.58L120.738 28.1C121.085 28.54 121.398 28.9 121.678 29.18C121.972 29.46 122.252 29.68 122.518 29.84C122.798 30 123.092 30.1133 123.398 30.18C123.705 30.2467 124.052 30.28 124.438 30.28V31.6L124.038 32C123.558 32 123.138 31.9667 122.778 31.9C122.432 31.8333 122.105 31.7133 121.798 31.54C121.505 31.3667 121.218 31.1267 120.938 30.82C120.658 30.5133 120.352 30.1267 120.018 29.66L119.678 29.18L119.598 29.22C119.612 29.3133 119.618 29.4067 119.618 29.5C119.632 29.58 119.638 29.66 119.638 29.74C119.638 30.4467 119.418 31 118.978 31.4C118.552 31.8 117.972 32 117.238 32H114.998V30.68ZM124.041 30.68L124.441 30.28H125.141C125.395 30.28 125.615 30.26 125.801 30.22C126.001 30.1667 126.181 30.08 126.341 29.96C126.501 29.84 126.648 29.68 126.781 29.48C126.928 29.28 127.081 29.02 127.241 28.7L128.101 27.02L129.241 27.6L128.181 29.6L128.461 29.78C128.888 30.06 129.301 30.2533 129.701 30.36C130.115 30.4667 130.515 30.52 130.901 30.52C131.528 30.52 131.988 30.3733 132.281 30.08C132.588 29.7867 132.741 29.2867 132.741 28.58V27.02H134.141V28.58C134.141 29.3 134.241 29.8067 134.441 30.1C134.641 30.38 134.988 30.52 135.481 30.52H135.881C136.735 30.52 137.161 30.0933 137.161 29.24C137.161 29.0267 137.148 28.7533 137.121 28.42C137.108 28.0733 137.068 27.7067 137.001 27.32L136.841 26.22L138.221 26.04L138.361 27.1C138.415 27.5133 138.455 27.9067 138.481 28.28C138.508 28.6533 138.521 28.9733 138.521 29.24C138.521 30.16 138.275 30.8933 137.781 31.44C137.288 31.9733 136.588 32.24 135.681 32.24C134.108 32.24 133.188 31.5733 132.921 30.24H132.821C132.688 30.88 132.428 31.3733 132.041 31.72C131.668 32.0667 131.175 32.24 130.561 32.24C129.761 32.24 128.875 31.9267 127.901 31.3L127.281 30.9C126.895 31.3267 126.455 31.62 125.961 31.78C125.468 31.9267 124.828 32 124.041 32V30.68ZM134.621 24.62C134.355 24.62 134.141 24.5467 133.981 24.4C133.821 24.24 133.741 23.9867 133.741 23.64C133.741 23.2933 133.821 23.0467 133.981 22.9C134.141 22.74 134.355 22.66 134.621 22.66H134.841C135.108 22.66 135.321 22.74 135.481 22.9C135.641 23.0467 135.721 23.2933 135.721 23.64C135.721 23.9867 135.641 24.24 135.481 24.4C135.321 24.5467 135.108 24.62 134.841 24.62H134.621ZM132.041 24.62C131.775 24.62 131.561 24.5467 131.401 24.4C131.241 24.24 131.161 23.9867 131.161 23.64C131.161 23.2933 131.241 23.0467 131.401 22.9C131.561 22.74 131.775 22.66 132.041 22.66H132.261C132.528 22.66 132.741 22.74 132.901 22.9C133.061 23.0467 133.141 23.2933 133.141 23.64C133.141 23.9867 133.061 24.24 132.901 24.4C132.741 24.5467 132.528 24.62 132.261 24.62H132.041ZM133.321 22.2C133.068 22.2 132.861 22.1267 132.701 21.98C132.555 21.82 132.481 21.58 132.481 21.26C132.481 20.94 132.555 20.7067 132.701 20.56C132.861 20.4 133.068 20.32 133.321 20.32H133.561C133.815 20.32 134.015 20.4 134.161 20.56C134.321 20.7067 134.401 20.94 134.401 21.26C134.401 21.58 134.321 21.82 134.161 21.98C134.015 22.1267 133.815 22.2 133.561 22.2H133.321ZM146.588 28.3L146.108 22.1V18.04H147.868V22.1L147.388 28.3H146.588ZM146.988 32.24C146.562 32.24 146.248 32.1333 146.048 31.92C145.862 31.7067 145.768 31.4267 145.768 31.08V30.82C145.768 30.4733 145.862 30.1933 146.048 29.98C146.248 29.7667 146.562 29.66 146.988 29.66C147.415 29.66 147.722 29.7667 147.908 29.98C148.108 30.1933 148.208 30.4733 148.208 30.82V31.08C148.208 31.4267 148.108 31.7067 147.908 31.92C147.722 32.1333 147.415 32.24 146.988 32.24ZM158.952 32C158.339 32 157.819 31.9533 157.392 31.86C156.979 31.7533 156.639 31.5867 156.372 31.36C156.119 31.12 155.932 30.82 155.812 30.46C155.692 30.0867 155.632 29.6267 155.632 29.08V28.74H155.532C155.345 29.34 155.025 29.7933 154.572 30.1C154.132 30.3933 153.599 30.54 152.972 30.54C152.079 30.54 151.379 30.3 150.872 29.82C150.379 29.34 150.132 28.66 150.132 27.78C150.132 27.4067 150.192 27.06 150.312 26.74C150.432 26.4067 150.625 26.0867 150.892 25.78C151.172 25.46 151.525 25.1467 151.952 24.84C152.379 24.52 152.899 24.1867 153.512 23.84L155.532 22.68V21.68H156.932V28.88C156.932 29.4267 157.072 29.8 157.352 30C157.632 30.1867 158.065 30.28 158.652 30.28H159.352V31.6L158.952 32ZM153.272 28.82C154.085 28.82 154.665 28.7067 155.012 28.48C155.359 28.24 155.532 27.82 155.532 27.22V24.3L153.512 25.38C152.805 25.7667 152.299 26.1267 151.992 26.46C151.685 26.78 151.532 27.1533 151.532 27.58C151.532 28.0067 151.659 28.32 151.912 28.52C152.179 28.72 152.632 28.82 153.272 28.82ZM156.172 20.02C155.905 20.02 155.692 19.9467 155.532 19.8C155.372 19.64 155.292 19.3867 155.292 19.04C155.292 18.6933 155.372 18.4467 155.532 18.3C155.692 18.14 155.905 18.06 156.172 18.06H156.392C156.659 18.06 156.872 18.14 157.032 18.3C157.192 18.4467 157.272 18.6933 157.272 19.04C157.272 19.3867 157.192 19.64 157.032 19.8C156.872 19.9467 156.659 20.02 156.392 20.02H156.172ZM153.592 20.02C153.325 20.02 153.112 19.9467 152.952 19.8C152.792 19.64 152.712 19.3867 152.712 19.04C152.712 18.6933 152.792 18.4467 152.952 18.3C153.112 18.14 153.325 18.06 153.592 18.06H153.812C154.079 18.06 154.292 18.14 154.452 18.3C154.612 18.4467 154.692 18.6933 154.692 19.04C154.692 19.3867 154.612 19.64 154.452 19.8C154.292 19.9467 154.079 20.02 153.812 20.02H153.592ZM158.944 30.68L159.344 30.28H159.644C160.524 30.28 161.157 30.1733 161.544 29.96C161.944 29.7333 162.144 29.3067 162.144 28.68C162.144 28.44 162.124 28.1333 162.084 27.76C162.057 27.3867 161.99 26.8933 161.884 26.28L161.604 24.62L163.004 24.4L163.244 26.06C163.337 26.7133 163.404 27.2467 163.444 27.66C163.484 28.0733 163.504 28.4133 163.504 28.68C163.504 29.8 163.17 30.6333 162.504 31.18C161.85 31.7267 160.897 32 159.644 32H158.944V30.68ZM163.284 36C163.017 36 162.804 35.92 162.644 35.76C162.484 35.6133 162.404 35.3667 162.404 35.02C162.404 34.6733 162.484 34.42 162.644 34.26C162.804 34.1133 163.017 34.04 163.284 34.04H163.504C163.77 34.04 163.984 34.1133 164.144 34.26C164.304 34.42 164.384 34.6733 164.384 35.02C164.384 35.3667 164.304 35.6133 164.144 35.76C163.984 35.92 163.77 36 163.504 36H163.284ZM160.704 36C160.437 36 160.224 35.92 160.064 35.76C159.904 35.6133 159.824 35.3667 159.824 35.02C159.824 34.6733 159.904 34.42 160.064 34.26C160.224 34.1133 160.437 34.04 160.704 34.04H160.924C161.19 34.04 161.404 34.1133 161.564 34.26C161.724 34.42 161.804 34.6733 161.804 35.02C161.804 35.3667 161.724 35.6133 161.564 35.76C161.404 35.92 161.19 36 160.924 36H160.704ZM169.382 32C168.742 32 168.196 31.9467 167.742 31.84C167.302 31.7333 166.942 31.56 166.662 31.32C166.396 31.0667 166.202 30.74 166.082 30.34C165.962 29.94 165.902 29.4533 165.902 28.88V17.2H167.382V28.88C167.382 29.3867 167.522 29.7467 167.802 29.96C168.082 30.1733 168.516 30.28 169.102 30.28H169.802V31.6L169.402 32H169.382ZM169.393 30.68L169.793 30.28H173.493L173.513 30.2L170.693 26.72V25C171.28 24.6933 171.913 24.46 172.593 24.3C173.286 24.1267 173.96 24.04 174.613 24.04C175.826 24.04 176.766 24.2867 177.433 24.78C178.113 25.2733 178.453 25.96 178.453 26.84C178.453 27.1867 178.406 27.4933 178.313 27.76C178.233 28.0133 178.093 28.2667 177.893 28.52C177.693 28.7733 177.433 29.0333 177.113 29.3C176.793 29.5667 176.406 29.8733 175.953 30.22L175.973 30.28H179.353V31.6L178.953 32H177.653C177.12 32 176.6 31.9267 176.093 31.78C175.6 31.62 175.14 31.3867 174.713 31.08C174.286 31.3867 173.82 31.62 173.313 31.78C172.82 31.9267 172.306 32 171.773 32H169.393V30.68ZM172.033 26.24L174.853 29.6L175.073 29.42C175.393 29.1533 175.673 28.92 175.913 28.72C176.166 28.52 176.38 28.3333 176.553 28.16C176.726 27.9733 176.86 27.8 176.953 27.64C177.046 27.4667 177.093 27.28 177.093 27.08C177.093 26.6533 176.873 26.3267 176.433 26.1C175.993 25.8733 175.373 25.76 174.573 25.76C174.186 25.76 173.78 25.7933 173.353 25.86C172.94 25.9133 172.5 26.0133 172.033 26.16V26.24ZM174.493 21.64C174.226 21.64 174.013 21.5667 173.853 21.42C173.693 21.26 173.613 21.0067 173.613 20.66C173.613 20.3133 173.693 20.0667 173.853 19.92C174.013 19.76 174.226 19.68 174.493 19.68H174.713C174.98 19.68 175.193 19.76 175.353 19.92C175.513 20.0667 175.593 20.3133 175.593 20.66C175.593 21.0067 175.513 21.26 175.353 21.42C175.193 21.5667 174.98 21.64 174.713 21.64H174.493ZM178.944 30.68L179.344 30.28H180.044C181.177 30.28 181.744 29.7133 181.744 28.58V17.2H183.224V28.58C183.224 29.7133 183.79 30.28 184.924 30.28H185.624V31.6L185.224 32C183.33 32 182.224 31.3467 181.904 30.04H181.804C181.657 30.7733 181.37 31.2867 180.944 31.58C180.517 31.86 179.85 32 178.944 32V30.68ZM185.233 30.68L185.633 30.28H186.213C186.853 30.28 187.313 30.1333 187.593 29.84C187.886 29.5467 188.033 29.08 188.033 28.44V17.2H189.513V28.44C189.513 29.6667 189.246 30.5667 188.713 31.14C188.193 31.7133 187.359 32 186.213 32H185.233V30.68ZM201.45 38.08C199.664 38.08 198.284 37.6933 197.31 36.92C196.35 36.16 195.87 35.0733 195.87 33.66C195.87 33.1267 195.937 32.64 196.07 32.2C196.204 31.7733 196.43 31.3667 196.75 30.98C197.07 30.5933 197.49 30.2133 198.01 29.84C198.544 29.4533 199.204 29.0467 199.99 28.62L200.21 28.5L197.45 25.1V23.38C198.037 23.0733 198.67 22.84 199.35 22.68C200.044 22.5067 200.717 22.42 201.37 22.42C202.584 22.42 203.524 22.6667 204.19 23.16C204.87 23.6533 205.21 24.34 205.21 25.22C205.21 25.5667 205.17 25.9 205.09 26.22C205.024 26.5267 204.89 26.8267 204.69 27.12C204.504 27.4 204.237 27.6733 203.89 27.94C203.557 28.2067 203.124 28.4733 202.59 28.74L202.39 28.84C202.657 29.12 202.917 29.3533 203.17 29.54C203.424 29.7133 203.69 29.86 203.97 29.98C204.25 30.0867 204.557 30.1667 204.89 30.22C205.224 30.26 205.604 30.28 206.03 30.28H207.17V31.6L206.77 32H206.03C205.47 32 204.97 31.9667 204.53 31.9C204.104 31.82 203.697 31.6867 203.31 31.5C202.937 31.3133 202.57 31.0667 202.21 30.76C201.85 30.44 201.464 30.0333 201.05 29.54L200.71 29.72C200.097 30.04 199.577 30.3467 199.15 30.64C198.724 30.92 198.377 31.2 198.11 31.48C197.844 31.76 197.65 32.0467 197.53 32.34C197.41 32.6333 197.35 32.9467 197.35 33.28V33.52C197.35 34.4 197.71 35.08 198.43 35.56C199.164 36.04 200.17 36.28 201.45 36.28C202.277 36.28 203.037 36.12 203.73 35.8C204.424 35.4933 205.097 34.9867 205.75 34.28L206.83 35.62C206.03 36.4867 205.204 37.1133 204.35 37.5C203.497 37.8867 202.53 38.08 201.45 38.08ZM198.79 24.62L201.49 27.84L201.95 27.6C202.67 27.2133 203.164 26.8667 203.43 26.56C203.71 26.24 203.85 25.8933 203.85 25.52C203.85 25.0667 203.63 24.7267 203.19 24.5C202.75 24.26 202.13 24.14 201.33 24.14C200.944 24.14 200.537 24.1733 200.11 24.24C199.697 24.2933 199.257 24.3933 198.79 24.54V24.62ZM206.776 30.68L207.176 30.28H207.476C208.356 30.28 208.989 30.1733 209.376 29.96C209.776 29.7333 209.976 29.3067 209.976 28.68C209.976 28.44 209.956 28.1333 209.916 27.76C209.889 27.3867 209.822 26.8933 209.716 26.28L209.436 24.62L210.836 24.4L211.076 26.06C211.169 26.7133 211.236 27.2467 211.276 27.66C211.316 28.0733 211.336 28.4133 211.336 28.68C211.336 29.8 211.002 30.6333 210.336 31.18C209.682 31.7267 208.729 32 207.476 32H206.776V30.68ZM207.856 21.6H208.576L208.596 21.52C208.489 21.3867 208.402 21.2333 208.336 21.06C208.269 20.8733 208.236 20.6867 208.236 20.5C208.236 19.98 208.409 19.5467 208.756 19.2C209.102 18.8533 209.542 18.68 210.076 18.68C210.382 18.68 210.696 18.76 211.016 18.92C211.336 19.0667 211.576 19.2667 211.736 19.52L210.996 20.42C210.729 20.1133 210.422 19.96 210.076 19.96C209.836 19.96 209.636 20.0267 209.476 20.16C209.316 20.28 209.236 20.4333 209.236 20.62C209.236 20.9 209.362 21.12 209.616 21.28C209.869 21.44 210.222 21.52 210.676 21.52H211.956V22.8H207.856V21.6ZM213.734 17.2H215.214V32H213.734V17.2ZM215.507 35.08H216.247C216.98 35.08 217.58 34.9733 218.047 34.76C218.514 34.5467 218.88 34.26 219.147 33.9C219.414 33.5533 219.6 33.14 219.707 32.66C219.814 32.1933 219.867 31.7 219.867 31.18C219.867 30.7933 219.847 30.3933 219.807 29.98C219.767 29.5533 219.714 29.1467 219.647 28.76L219.227 26.5L220.627 26.22L220.887 27.74C221.1 28.9667 221.207 30.1267 221.207 31.22C221.207 31.9533 221.127 32.6533 220.967 33.32C220.807 34 220.534 34.5933 220.147 35.1C219.774 35.62 219.267 36.0333 218.627 36.34C218 36.6467 217.207 36.8 216.247 36.8H215.507V35.08Z" fill="#121010"/>
<defs>
<radialGradient id="paint0_radial_239_550" cx="0" cy="0" r="1" gradientUnits="userSpaceOnUse" gradientTransform="translate(1005.27 44.6327) rotate(-170.166) scale(38.8359)">
<stop stop-color="#BFA7A7"/>
<stop offset="1" stop-color="#7D6565"/>
</radialGradient>
<linearGradient id="paint1_linear_239_550" x1="627.5" y1="72" x2="600" y2="72" gradientUnits="userSpaceOnUse">
<stop/>
<stop offset="1" stop-color="#575757"/>
</linearGradient>
<radialGradient id="paint2_radial_239_550" cx="0" cy="0" r="1" gradientUnits="userSpaceOnUse" gradientTransform="translate(38.2653 31.6327) rotate(-170.166) scale(38.8359)">
<stop stop-color="#BFA7A7"/>
<stop offset="1" stop-color="#7D6565"/>
</radialGradient>
<radialGradient id="paint3_radial_239_550" cx="0" cy="0" r="1" gradientUnits="userSpaceOnUse" gradientTransform="translate(285.265 36.6327) rotate(-170.166) scale(38.8359)">
<stop stop-color="#B71C1C"/>
<stop offset="1" stop-color="#713434"/>
</radialGradient>
</defs>
</svg>
