<svg width="140" height="72" viewBox="0 0 140 72" fill="none" xmlns="http://www.w3.org/2000/svg">
<path d="M89.0557 15.3284C88.7891 14.5473 89.5247 13.7958 90.3064 14.0506L138.92 29.8922C139.96 30.2311 130.578 31.1088 129.488 31.1906L111.158 33.9083C110.684 33.9438 110.302 34.3098 110.243 34.7831L106.862 51.6415C106.731 52.6954 105.301 62.9354 104.958 61.9307L89.0557 15.3284Z" fill="#DC0E11"/>
<path d="M106.862 51.6415L105.882 51.4449L105.874 51.4813L105.87 51.5181L106.862 51.6415ZM104.958 61.9307L105.904 61.6078L104.958 61.9307ZM111.158 33.9083L111.233 34.9055L111.269 34.9028L111.305 34.8975L111.158 33.9083ZM110.243 34.7831L111.223 34.9797L111.23 34.9433L111.235 34.9065L110.243 34.7831ZM138.92 29.8922L139.229 28.9414L138.92 29.8922ZM129.488 31.1906L129.413 30.1934L129.377 30.1961L129.341 30.2014L129.488 31.1906ZM90.3064 14.0506L89.9966 15.0013H89.9966L90.3064 14.0506ZM89.0557 15.3284L88.1092 15.6514L89.0557 15.3284ZM95.3396 18.6048C94.9363 18.2275 94.3034 18.2485 93.9261 18.6518C93.5488 19.0551 93.5699 19.6879 93.9732 20.0653L95.3396 18.6048ZM89.9966 15.0013L138.61 30.843L139.229 28.9414L90.6163 13.0998L89.9966 15.0013ZM129.341 30.2014L111.011 32.9191L111.305 34.8975L129.634 32.1798L129.341 30.2014ZM109.262 34.5865L105.882 51.4449L107.843 51.8381L111.223 34.9797L109.262 34.5865ZM105.904 61.6078L90.0021 15.0055L88.1092 15.6514L104.011 62.2537L105.904 61.6078ZM105.87 51.5181C105.806 52.0312 105.417 54.8423 105.002 57.3977C104.794 58.6786 104.583 59.8737 104.405 60.6795C104.313 61.0988 104.242 61.352 104.2 61.4584C104.192 61.4811 104.195 61.4693 104.212 61.4392C104.213 61.4367 104.29 61.2902 104.47 61.167C104.575 61.0949 104.758 61.0027 105.002 61.0001C105.26 60.9973 105.47 61.0953 105.612 61.2071C105.839 61.386 105.903 61.6049 105.904 61.6078L104.011 62.2537C104.034 62.3194 104.122 62.5791 104.374 62.7781C104.529 62.9 104.752 63.0028 105.024 62.9999C105.282 62.9972 105.479 62.8998 105.599 62.8177C105.808 62.6744 105.916 62.4883 105.95 62.4281C106 62.3402 106.038 62.2524 106.065 62.1822C106.168 61.9168 106.266 61.5266 106.358 61.1106C106.549 60.2461 106.768 59.0037 106.976 57.7184C107.395 55.1415 107.787 52.3057 107.855 51.765L105.87 51.5181ZM111.083 32.9111C110.132 32.9824 109.368 33.717 109.25 34.6596L111.235 34.9065C111.235 34.9055 111.235 34.905 111.235 34.905C111.235 34.9049 111.235 34.9049 111.235 34.9049C111.235 34.9049 111.235 34.9049 111.235 34.9049C111.235 34.9049 111.235 34.9049 111.235 34.9049C111.235 34.9049 111.235 34.9049 111.235 34.9049C111.235 34.9049 111.236 34.9047 111.236 34.9044C111.236 34.9041 111.236 34.9043 111.235 34.9047C111.234 34.9053 111.233 34.9055 111.233 34.9055L111.083 32.9111ZM138.61 30.843C138.61 30.8429 138.463 30.8011 138.313 30.6643C138.227 30.586 138.096 30.4362 138.034 30.2037C137.966 29.9518 138.008 29.7144 138.093 29.5347C138.227 29.2512 138.451 29.1357 138.457 29.1324C138.506 29.1041 138.536 29.0949 138.523 29.0998C138.453 29.1244 138.246 29.175 137.866 29.2415C137.146 29.3674 136.062 29.5087 134.888 29.6445C132.546 29.9153 129.942 30.1537 129.413 30.1934L129.562 32.1878C130.124 32.1457 132.756 31.9044 135.118 31.6312C136.295 31.495 137.429 31.3482 138.21 31.2116C138.58 31.1469 138.944 31.0726 139.193 30.9841C139.259 30.9606 139.353 30.9239 139.449 30.8688C139.502 30.8387 139.756 30.6973 139.901 30.3887C139.992 30.1964 140.036 29.9468 139.965 29.6827C139.899 29.4382 139.76 29.2766 139.661 29.1866C139.486 29.0267 139.295 28.9626 139.229 28.9414L138.61 30.843ZM90.6163 13.0998C89.0401 12.5861 87.5802 14.101 88.1092 15.6514L90.0021 15.0055C89.9996 14.9982 89.9999 14.9961 90 14.998C90.0001 14.9997 89.9998 15.002 89.9994 15.0039C89.9989 15.0056 89.9986 15.0059 89.9991 15.005C89.9997 15.0039 90.0009 15.0023 90.0026 15.0005C90.0043 14.9988 90.0057 14.9978 90.0062 14.9976C90.0066 14.9973 90.0054 14.9981 90.0026 14.9988C89.9996 14.9996 89.996 15.0001 89.9929 15C89.9895 14.9999 89.9904 14.9993 89.9966 15.0013L90.6163 13.0998ZM93.9732 20.0653L109.852 34.9212L111.218 33.4607L95.3396 18.6048L93.9732 20.0653Z" fill="#F8F8FF"/>
<path d="M15.168 63.52C10.72 63.52 7.36 62.368 5.088 60.064C2.816 57.792 1.68 54.56 1.68 50.368C1.68 48.928 1.872 47.312 2.256 45.52C2.672 43.696 3.232 41.936 3.936 40.24L8.544 41.584C7.904 42.96 7.392 44.352 7.008 45.76C6.656 47.168 6.48 48.384 6.48 49.408C6.48 51.424 7.072 52.976 8.256 54.064C9.472 55.184 11.136 55.744 13.248 55.744H17.088C18.336 55.744 19.392 55.584 20.256 55.264C21.12 54.976 21.808 54.48 22.32 53.776C22.864 53.104 23.248 52.224 23.472 51.136C23.728 50.016 23.856 48.656 23.856 47.056V16.48H29.616V44.8H34.944V50.56L33.504 52H29.232C28.592 55.936 27.136 58.832 24.864 60.688C22.592 62.576 19.36 63.52 15.168 63.52ZM33.4819 46.24L34.9219 44.8H36.3619C38.9219 44.8 40.2019 43.68 40.2019 41.44V34.576H45.4819V41.44C45.4819 43.68 46.6019 44.8 48.8419 44.8H50.7619V50.56L49.3219 52C46.7619 52 44.8099 51.488 43.4659 50.464C42.1539 49.408 41.2739 47.76 40.8259 45.52H40.5379C40.0899 47.76 39.3219 49.408 38.2339 50.464C37.1459 51.488 35.5619 52 33.4819 52V46.24ZM46.1539 62.32C45.3219 62.32 44.6339 62.064 44.0899 61.552C43.5779 61.04 43.3219 60.224 43.3219 59.104C43.3219 57.984 43.5779 57.168 44.0899 56.656C44.6339 56.144 45.3219 55.888 46.1539 55.888H47.1139C47.9459 55.888 48.6179 56.144 49.1299 56.656C49.6739 57.168 49.9459 57.984 49.9459 59.104C49.9459 60.224 49.6739 61.04 49.1299 61.552C48.6179 62.064 47.9459 62.32 47.1139 62.32H46.1539ZM38.5699 62.32C37.7379 62.32 37.0499 62.064 36.5059 61.552C35.9939 61.04 35.7379 60.224 35.7379 59.104C35.7379 57.984 35.9939 57.168 36.5059 56.656C37.0499 56.144 37.7379 55.888 38.5699 55.888H39.5299C40.3619 55.888 41.0339 56.144 41.5459 56.656C42.0899 57.168 42.3619 57.984 42.3619 59.104C42.3619 60.224 42.0899 61.04 41.5459 61.552C41.0339 62.064 40.3619 62.32 39.5299 62.32H38.5699ZM49.3256 46.24L50.7656 44.8H60.0776C61.1656 44.8 62.1576 44.736 63.0536 44.608C63.9816 44.48 64.7496 44.256 65.3576 43.936C65.9976 43.616 66.4936 43.184 66.8456 42.64C67.1976 42.096 67.3736 41.408 67.3736 40.576V38.368H67.0856C66.1576 40.896 64.0296 42.16 60.7016 42.16C58.1096 42.16 56.0776 41.488 54.6056 40.144C53.1656 38.768 52.4456 36.88 52.4456 34.48C52.4456 32.816 52.6856 31.28 53.1656 29.872C53.6776 28.432 54.3656 27.2 55.2296 26.176C56.1256 25.12 57.1656 24.304 58.3496 23.728C59.5656 23.12 60.8776 22.816 62.2856 22.816C65.4216 22.816 67.8536 24.128 69.5816 26.752C71.3416 29.376 72.2216 33.024 72.2216 37.696C72.2216 40.608 71.9656 42.992 71.4536 44.848C70.9416 46.704 70.1736 48.16 69.1496 49.216C68.1576 50.272 66.8936 51.008 65.3576 51.424C63.8536 51.808 62.0936 52 60.0776 52H49.3256V46.24ZM62.1896 35.92C63.4056 35.92 64.4296 35.872 65.2616 35.776C66.0936 35.648 66.7656 35.456 67.2776 35.2C67.0856 33.632 66.4616 32.384 65.4056 31.456C64.3816 30.496 63.1336 30.016 61.6616 30.016C60.4136 30.016 59.3576 30.352 58.4936 31.024C57.6616 31.664 57.2456 32.496 57.2456 33.52C57.2456 34.384 57.5976 35.008 58.3016 35.392C59.0056 35.744 59.9656 35.92 61.1816 35.92H62.1896ZM65.5976 18.976C64.7656 18.976 64.0776 18.72 63.5336 18.208C63.0216 17.696 62.7656 16.88 62.7656 15.76C62.7656 14.64 63.0216 13.824 63.5336 13.312C64.0776 12.8 64.7656 12.544 65.5976 12.544H66.5576C67.3896 12.544 68.0616 12.8 68.5736 13.312C69.1176 13.824 69.3896 14.64 69.3896 15.76C69.3896 16.88 69.1176 17.696 68.5736 18.208C68.0616 18.72 67.3896 18.976 66.5576 18.976H65.5976ZM58.0136 18.976C57.1816 18.976 56.4936 18.72 55.9496 18.208C55.4376 17.696 55.1816 16.88 55.1816 15.76C55.1816 14.64 55.4376 13.824 55.9496 13.312C56.4936 12.8 57.1816 12.544 58.0136 12.544H58.9736C59.8056 12.544 60.4776 12.8 60.9896 13.312C61.5336 13.824 61.8056 14.64 61.8056 15.76C61.8056 16.88 61.5336 17.696 60.9896 18.208C60.4776 18.72 59.8056 18.976 58.9736 18.976H58.0136ZM61.8056 11.968C60.9736 11.968 60.2856 11.712 59.7416 11.2C59.2296 10.688 58.9736 9.872 58.9736 8.752C58.9736 7.632 59.2296 6.816 59.7416 6.304C60.2856 5.792 60.9736 5.536 61.8056 5.536H62.7656C63.5976 5.536 64.2696 5.792 64.7816 6.304C65.3256 6.816 65.5976 7.632 65.5976 8.752C65.5976 9.872 65.3256 10.688 64.7816 11.2C64.2696 11.712 63.5976 11.968 62.7656 11.968H61.8056Z" fill="#DC0E11"/>
</svg>
